<svg xmlns="http://www.w3.org/2000/svg" viewBox="0 0 512 512" style="height: 512px; width: 512px;"><path d="M0 0h512v512H0z" fill="transparent" fill-opacity="0"></path><g class="" transform="translate(0,0)" style="touch-action: none;"><g><path d="M62 19C39.463 19 21 37.463 21 60C21 82.537 39.463 101 62 101C84.537 101 103 82.537 103 60C103 37.463 84.537 19 62 19Z" class="" fill="#48baff" fill-opacity="1"></path><path d="M232.977 28.97C215.999 28.048 179.98 101.058 179.143 142.3C178.483 174.769 217.11 199.228 217.879 231.693C218.736 267.866 189.333 290.643 179.482 333.225C174.955 348.688 187.408 371.477 194.578 383.203C200.241 392.321 206.778 399.859 213.264 405.012C207.101 376.118 208.068 345.72 213.074 317.297C216.336 298.777 226.936 283.63 235.566 269.467C244.196 255.304 250.704 242.583 249.936 229.65C249.132 216.117 239.558 203.6 227.883 189.68C216.207 175.76 202.531 160.664 199.598 140.166C197.43 123.003 206.114 99.957 212.205 83.063L228.803 90.027C222.273 105.988 217.798 120.315 217.416 137.617C219.363 151.223 229.874 164.045 241.674 178.113C253.474 192.182 266.666 207.725 267.904 228.582C269.054 247.947 259.875 264.166 250.938 278.834C242 293.502 233.15 307.076 230.8 320.42C225.216 352.124 225.208 386.016 234.724 415.855C237.967 426.027 244.157 438.715 251.458 451.492C252.544 448.925 253.462 446.29 254.206 443.604C256.808 434.122 256.576 423.838 253.636 419.502L268.534 409.398C276.708 421.451 274.89 436.246 271.564 448.368C269.9 454.428 267.68 459.921 265.241 464.416C264.293 466.162 263.317 467.752 262.243 469.223C264.22 472.294 266.24 475.337 268.3 478.353C271.934 483.664 275.703 488.882 279.604 494L312.279 494C323.336 452.343 255.885 397.052 255.623 346.908C255.405 305.206 295.663 268.095 290.387 226.727C286.199 193.889 249.328 172.988 239.73 141.307C228.868 105.451 248.069 31.951 233.771 29.07C233.509 29.018 233.244 28.984 232.977 28.97Z" class="" fill="#b8e986" fill-opacity="1"></path><path d="M85 60C85 72.81 74.81 83 62 83C49.19 83 39 72.81 39 60C39 59.876 39.008 59.753 39.01 59.629C41.806 61.652 45.214 62.865 48.875 62.865C58.157 62.865 65.875 55.147 65.875 45.865C65.875 42.646 64.93 39.625 70.219 38.671C75.507 37.716 85 47.638 85 60Z" class="" fill="#fff" fill-opacity="1"></path><path d="M332.488 77.32C314.369 77.32 299.488 92.202 299.488 110.32C299.488 128.44 314.369 143.32 332.488 143.32C350.608 143.32 365.488 128.44 365.488 110.32C365.488 92.202 350.608 77.32 332.488 77.32Z" class="" fill="#ffffff" fill-opacity="0"></path><path d="M337.803 96.28C343.503 98.39 347.488 103.812 347.488 110.32C347.488 118.711 340.879 125.32 332.488 125.32C324.715 125.32 318.483 119.644 317.605 112.139C319.305 112.827 321.149 113.219 323.072 113.219C331.191 113.219 337.965 106.445 337.965 98.326C337.965 97.631 337.899 96.951 337.803 96.279Z" class="selected" fill="#48baff" fill-opacity="1"></path><path d="M300.488 141.32C291.206 141.32 283.488 149.038 283.488 158.32C283.488 167.603 291.206 175.32 300.488 175.32C309.771 175.32 317.488 167.603 317.488 158.32C317.488 149.038 309.771 141.32 300.488 141.32Z" class="" fill="#48baff" fill-opacity="1"></path><path d="M367.336 165.506C367.137 165.502 366.937 165.515 366.74 165.545C356.237 167.225 386.076 237.526 376.41 271.727C370.774 291.67 343.433 301.247 339.197 321.535C334.294 345.02 356.144 367.628 355.605 391.613C354.872 424.301 313.367 459.858 332.98 486.018C338.236 493.027 344.756 484.983 351.049 480.314C355.688 476.093 360.196 471.73 364.566 467.232C362.782 465.267 361.164 463.157 359.729 460.924C353.928 451.879 351.13 441.233 351.736 430.504L369.709 431.49C369.255 439.77 371.791 446.396 374.873 451.193C375.468 452.12 376.083 452.946 376.693 453.715C378.328 451.7 379.85 449.743 381.103 447.939C387.286 439.048 392.437 429.778 392.521 422.004C392.673 408.056 383.13 393.406 372.516 377.316C361.902 361.227 350.076 343.194 353.418 321.555C355.438 308.469 365.319 300.892 373.028 294.707C380.736 288.522 386.514 283.353 387.861 278.463L405.215 283.244C401.76 295.784 391.805 302.717 384.291 308.746C376.777 314.775 371.945 319.521 371.207 324.303C369.124 337.795 377.097 351.576 387.539 367.404C397.981 383.233 410.755 400.602 410.521 422.199C410.363 436.826 402.489 448.714 395.883 458.215C387.778 469.871 374.948 482.923 363.148 493.639C363.012 493.763 362.88 493.877 362.744 494L397.67 494C406.78 490.388 414.926 485.364 420.83 479.314C441.512 458.124 432.485 421.624 425.139 390.588C420.798 372.25 391.959 349.022 392.463 324.432C392.868 304.64 420.622 292.1 420.92 272.307C421.511 233.027 380.27 165.737 367.336 165.506Z" class="" fill="#50e3c2" fill-opacity="1"></path><path d="M79.084 170.643C78.882 170.653 78.684 170.676 78.494 170.711C67.991 172.651 91.432 220.626 88.162 245.574C85.436 266.368 66.344 282.916 64.295 303.787C61.632 330.902 81.385 356.79 80 384C78.276 417.881 29.335 455.441 48.732 481.729C53.497 477.347 59.286 471.619 65.307 465.104C78.784 450.521 93.198 431.979 99.039 418.785C104.22 407.082 105.339 392.535 103.873 378.705C99.78 357.519 84.612 338.802 83.328 319.318C82.252 298.62 92.482 281.846 95.232 267.218C97.383 255.778 100.375 230.824 100.375 230.824L118.25 232.941C118.25 232.941 115.374 257.502 112.922 270.545C109.348 289.552 100.604 304.904 101.305 318.383C104.388 339.621 119.489 357.625 121.773 376.807C123.472 392.82 122.467 410.332 115.5 426.07C107.906 443.224 92.715 461.967 78.525 477.32C74.057 482.159 69.446 486.863 64.697 491.426C82.784 495.088 107.731 485.279 120.643 473.806C149.505 448.161 152.873 409.8 141.553 364.953C134.316 336.285 119.289 316.026 121.073 290.275C122.158 274.592 148.275 264.55 139.695 246.945C125.642 218.109 91.785 169.989 79.084 170.643Z" class="" fill="#50e3c2" fill-opacity="1"></path><path d="M458.82 289.986C451.202 289.986 444.16 292.625 438.553 297.021C436.417 298.277 434.619 300.033 433.313 302.139C428.639 307.837 425.82 315.104 425.82 322.986C425.82 341.106 440.702 355.986 458.82 355.986C476.94 355.986 491.82 341.106 491.82 322.986C491.82 304.868 476.94 289.986 458.82 289.986Z" class="" fill="#48baff" fill-opacity="1"></path><path d="M460.744 308.119C468.197 309.043 473.82 315.25 473.82 322.986C473.82 331.377 467.211 337.986 458.82 337.986C450.977 337.986 444.693 332.21 443.906 324.604C444.583 324.701 445.269 324.768 445.969 324.768C454.087 324.768 460.861 317.994 460.861 309.875C460.861 309.281 460.815 308.697 460.744 308.119Z" class="" fill="#fff" fill-opacity="1"></path><path d="M172.037 379.66C168.363 425.766 177.96 465.184 207.047 494L257.266 494C255.979 492.183 254.705 490.355 253.446 488.518C240.874 470.143 227.87 448.398 220.352 429.111C203.326 424.578 189.789 409.61 179.287 392.699C176.669 388.468 174.249 384.117 172.037 379.66Z" class="" fill="#b8e986" fill-opacity="1"></path></g></g></svg>