<svg xmlns="http://www.w3.org/2000/svg" viewBox="0 0 512 512" style="height: 512px; width: 512px;"><defs><linearGradient x1="0" x2="0" y1="0" y2="1" id="gradient-2"><stop offset="0%" stop-color="#7ed321" stop-opacity="1"></stop><stop offset="100%" stop-color="#417505" stop-opacity="1"></stop></linearGradient></defs><path d="M0 0h512v512H0z" fill="transparent" fill-opacity="0"></path><g class="" transform="translate(1,1)" style="touch-action: none;"><g transform="translate(76.8, 76.8) scale(0.7, 0.7) rotate(0, 256, 256)"><path d="M305.105 21.24L300.705 21.377L300.549 21.383L300.392 21.393L294.938 21.743L294.783 21.753L294.629 21.77L289.216 22.3L289.063 22.314L288.911 22.336L285.558 22.776L287.888 40.526C282.008 41.243 276.214 42.264 270.548 43.568L266.038 26.528L261.445 27.746L261.303 27.783L261.16 27.826L256.103 29.338L255.963 29.378L255.823 29.426L250.848 31.088L250.708 31.135L250.568 31.185L247.363 32.371L253.338 48.541C247.683 50.521 242.218 52.787 237.004 55.327L229.185 40.429L226.065 42.067L225.928 42.14L225.793 42.215L221.451 44.682L221.314 44.758L221.18 44.842L216.967 47.428L216.827 47.512L216.694 47.6L212.614 50.3L212.477 50.393L212.343 50.488L212.069 50.684L221.629 64.07C220.569 64.77 219.519 65.478 218.489 66.203C214.664 68.897 211.047 71.789 207.685 74.859L196.419 63.269L193.114 66.479L192.977 66.612L192.847 66.752L189.712 70.058L189.575 70.198L189.445 70.348L186.491 73.74L186.356 73.894L186.228 74.054L183.461 77.527L183.361 77.651L183.267 77.778L182.919 78.248L195.862 87.861C192.394 92.543 189.494 97.511 187.27 102.727L183.41 101.032L172.376 95.832L172.342 95.902L172.287 96.017L172.237 96.132L171.397 98.05L171.345 98.167L171.295 98.287L170.513 100.217L170.463 100.339L170.417 100.462L169.687 102.407L169.643 102.532L169.601 102.659L168.931 104.619L168.886 104.745L168.846 104.875L168.234 106.847L168.194 106.977L168.156 107.11L167.606 109.095L167.568 109.227L167.535 109.364L167.045 111.358L167.011 111.498L166.979 111.638L166.552 113.643L166.52 113.783L166.495 113.923L166.128 115.941L166.102 116.084L166.082 116.227L166.079 116.231L175.449 117.638L182.769 118.971C182.587 120.326 182.449 121.693 182.359 123.071C182.099 127.051 182.256 131.074 182.813 135.121L165.703 137.557L165.991 139.567L166.013 139.717L166.038 139.867L166.408 141.967L166.434 142.117L166.464 142.267L166.906 144.367L166.936 144.517L166.973 144.665L167.485 146.77L167.52 146.917L167.56 147.061L168.15 149.173L168.188 149.315L168.233 149.46L168.895 151.57L168.938 151.714L168.988 151.852L169.723 153.968L169.773 154.108L169.825 154.244L170.638 156.361L170.688 156.496L170.745 156.629L171.249 157.827L187.155 151.149C189.171 156.119 191.822 161.091 195.112 166.034L181.49 175.934L182.662 177.544L182.734 177.644L182.808 177.741L184.426 179.847L184.498 179.942L184.574 180.036L186.274 182.136L186.349 182.228L186.426 182.316L188.213 184.412L188.288 184.5L188.364 184.586L190.238 186.676L190.314 186.76L190.39 186.842L192.35 188.926L192.426 189.006L192.504 189.084L194.551 191.164L201.234 184.578L194.674 191.285L195.864 192.449L207.124 180.939C210.92 184.927 215.154 188.874 219.854 192.759C220.17 193.019 220.499 193.299 220.816 193.562L209.36 205.52L211.986 208.04L212.01 208.063L212.033 208.083L222.969 218.423L234.981 205.719C239.493 209.696 244.133 213.894 248.849 218.247L236.552 231.261L241.45 235.891L241.477 235.913L250.084 244.103L262.477 231.079C267.002 235.432 271.483 239.844 275.902 244.279L263.418 256.979L271.068 264.499L271.125 264.556L271.133 264.563L275.705 269.147L275.758 269.2L276.566 270.025L289.049 257.773C289.633 258.391 290.229 259.013 290.809 259.627C294.671 263.733 298.372 267.779 301.876 271.723L289.294 283.289L292.608 286.892L292.66 286.952L292.7 286.992L296.39 291.126L296.42 291.161L299.768 295.044L299.805 295.089L301.332 296.935L314.222 286.269C315.975 288.451 317.642 290.579 319.162 292.606C321.739 296.044 323.902 299.333 325.654 302.239L311.691 310.944L312.545 312.314L313.287 313.618L313.964 314.902L314.514 316.039L314.977 317.116L315.343 318.076L315.587 318.853L315.749 319.497L315.874 320.235L316.384 323.885L316.397 323.978L316.413 324.072L316.543 324.894L332.517 322.334C333.735 328.46 335.12 334.284 336.681 339.769L320.577 344.153L321.207 346.46L321.233 346.563L321.263 346.663L322.249 349.99L322.279 350.094L322.313 350.197L323.36 353.449L323.393 353.554L323.429 353.657L324.534 356.833L324.571 356.94L324.611 357.047L325.774 360.145L325.814 360.252L325.858 360.359L326.888 362.899L342.455 356.609C343.327 358.734 344.229 360.795 345.172 362.772C346.758 366.102 348.449 369.242 350.26 372.167L349.2 372.862L336.094 380.895L336.194 381.058L336.269 381.182L336.349 381.302L337.925 383.699L338.007 383.827L338.095 383.95L339.715 386.252L339.805 386.382L339.899 386.506L341.563 388.709L341.661 388.839L341.765 388.966L343.472 391.066L343.579 391.2L343.692 391.33L345.44 393.328L345.56 393.463L345.68 393.593L347.47 395.486L347.596 395.621L347.729 395.751L349.219 397.211L360.919 385.257C363.959 387.989 367.266 390.243 370.897 391.921C372.027 392.443 373.184 392.873 374.357 393.251L367.665 409.435L368.382 409.731L368.624 409.831L368.87 409.917L370.99 410.657L371.242 410.745L371.5 410.819L373.645 411.433L373.908 411.509L374.176 411.567L376.344 412.054L376.614 412.114L376.891 412.159L379.083 412.513L379.363 412.558L379.643 412.588L381.855 412.81L382.138 412.836L382.423 412.848L384.655 412.936L384.94 412.946L385.223 412.939L387.475 412.889L387.76 412.884L388.04 412.86L390.31 412.674L390.592 412.65L390.869 412.61L390.876 412.61L389.532 403.232L388.808 394.48C393.5 393.858 398.231 392.3 402.783 389.854L411.753 405.364L412.857 404.727L413.047 404.617L413.231 404.497L415.601 402.975L415.778 402.861L415.951 402.739L418.324 401.059L418.488 400.942L418.646 400.82L421.023 398.977L421.176 398.859L421.322 398.736L423.702 396.732L423.84 396.615L423.975 396.492L426.353 394.322L426.483 394.205L426.605 394.085L428.281 392.439L416.025 379.957C419.895 376.279 423.723 371.934 427.539 366.917L441.302 377.047L441.798 376.373L441.873 376.273L441.947 376.167L444.292 372.79L444.362 372.69L444.429 372.587L446.765 369.03L446.829 368.933L446.889 368.833L449.214 365.093L449.272 364.999L449.329 364.903L451.642 360.98L451.694 360.89L451.744 360.8L452.001 360.34L437.509 352.23C438.755 350.198 440.005 348.103 441.257 345.92L441.257 345.917C443.112 342.681 444.864 339.455 446.56 336.235L461.017 343.499L462.503 340.542L462.55 340.447L462.595 340.352L465.71 333.785L465.757 333.689L465.8 333.589L468.716 327.059L468.76 326.959L468.803 326.859L469.173 325.975L454.551 319.85C457.111 314.143 459.434 308.468 461.514 302.834L476.152 308.162L476.549 307.072L476.589 306.967L476.623 306.859L478.771 300.479L478.809 300.371L478.842 300.261L480.807 293.923L480.841 293.813L480.871 293.7L482.005 289.697L467.215 285.512C468.933 279.558 470.391 273.658 471.601 267.814L486.538 270.846L487.098 268.096L487.121 267.979L487.143 267.859L488.221 261.747L488.241 261.63L488.261 261.512L489.168 255.447L489.185 255.327L489.201 255.207L489.637 251.689L474.565 249.825C475.322 243.692 475.805 237.635 476.03 231.661L491.192 232.335L491.262 230.735L491.268 230.612L491.271 230.489L491.377 224.689L491.377 224.444L491.329 218.702L491.327 218.579L491.323 218.456L491.13 212.911L475.93 213.441C475.62 207.343 475.028 201.351 474.194 195.468L489.317 193.32L488.797 189.662L488.78 189.539L488.76 189.417L487.85 184.047L487.83 183.925L487.806 183.805L486.762 178.499L486.738 178.379L486.711 178.257L485.805 174.217L470.821 177.577C469.413 171.657 467.735 165.877 465.825 160.237L480.483 155.287L479.315 151.831L479.275 151.716L479.235 151.601L477.445 146.724L477.401 146.608L477.356 146.494L475.453 141.694L475.408 141.58L475.361 141.47L473.523 137.168L459.183 143.293C456.699 137.753 453.985 132.381 451.045 127.197L464.778 119.583L463.776 117.778L463.721 117.676L463.661 117.574L461.121 113.254L461.061 113.152L460.998 113.052L458.361 108.816L458.299 108.716L458.234 108.616L455.504 104.469L455.439 104.372L455.373 104.276L454.426 102.913L441.41 111.956C437.93 106.992 434.242 102.241 430.367 97.712L442.547 87.306L439.841 84.138L439.767 84.048L439.687 83.963L436.452 80.359L436.376 80.274L436.296 80.19L432.984 76.686L432.904 76.602L432.822 76.518L429.439 73.108L429.357 73.028L429.277 72.948L429.237 72.91L421.243 81.244L417.921 84.539C413.539 80.339 408.984 76.393 404.281 72.722L414.768 60.017L414.558 59.843L414.468 59.769L414.375 59.696L410.672 56.792L410.58 56.72L410.486 56.65L406.728 53.852L406.633 53.782L406.537 53.715L402.724 51.021L402.628 50.954L402.531 50.89L398.914 48.467L389.574 62.424C385.694 60.004 381.747 57.75 377.734 55.688C376.511 55.058 375.278 54.458 374.044 53.868L377.432 47.102L381.949 38.58L381.944 38.576L381.849 38.526L381.751 38.476L379.114 37.156L379.028 37.116L378.941 37.074L376.291 35.814L376.205 35.771L376.119 35.735L373.456 34.532L373.37 34.496L373.283 34.459L370.607 33.316L370.521 33.279L370.435 33.244L367.745 32.158L367.659 32.125L367.571 32.092L364.871 31.064L364.786 31.031L364.698 30.999L363.593 30.603L357.638 47.245C352.025 45.365 346.338 43.829 340.614 42.635L341.284 39.48L344.616 25.096L344.516 25.072L344.433 25.052L344.345 25.035L341.587 24.449L341.501 24.431L341.415 24.413L338.651 23.883L338.567 23.866L338.481 23.851L335.716 23.371L335.632 23.356L335.547 23.343L332.779 22.915L332.695 22.901L332.611 22.891L329.841 22.515L329.757 22.503L329.673 22.493L326.903 22.167L326.819 22.157L326.737 22.149L324.985 21.976L323.192 40.011C317.338 39.461 311.485 39.246 305.67 39.329L305.107 21.239Z" class="" fill="url(#gradient-2)"></path><path d="M308.232 58.36C329.018 58.32 350.235 62.564 369.192 72.31C441.428 109.44 495.494 213.747 425.047 336.62C414.537 354.958 404.573 366.318 396.621 371.76C388.671 377.202 383.891 377.336 378.739 374.955C373.589 372.575 367.403 365.971 362.046 354.732C356.689 343.494 352.189 328.018 349.194 309.506C347.677 300.126 341.974 291.876 334.118 281.396C326.263 270.918 315.943 259.066 304.418 246.82C281.372 222.33 253.588 196.387 231.768 178.354C207.663 158.434 199.991 140.074 201.015 124.284C202.039 108.494 212.221 93.476 229.253 81.482C248.413 67.989 275.673 59.256 304.083 58.426C305.463 58.386 306.848 58.364 308.233 58.361Z" class="" fill="#b8e986" fill-opacity="1"></path><path d="M85.574 60.42L85.197 60.43L82.975 60.492L82.575 60.504L82.182 60.549L79.977 60.799L79.67 60.833L79.365 60.888L78.271 61.084L78.065 61.124L77.858 61.17L77.248 61.31L81.078 78.076C78.548 78.642 76.044 79.589 73.685 80.959C71.421 82.275 69.289 83.713 67.263 85.237L57.363 71.2L56.193 72.023L56.085 72.103L55.978 72.183L54.356 73.395L54.249 73.475L54.144 73.559L52.581 74.799L52.476 74.884L52.37 74.972L50.865 76.242L50.762 76.329L50.66 76.419L49.213 77.714L49.111 77.806L49.011 77.901L47.621 79.221L47.521 79.315L47.425 79.413L46.091 80.755L45.993 80.853L45.899 80.953L44.622 82.319L44.527 82.421L44.437 82.524L43.215 83.911L43.123 84.017L43.033 84.124L41.883 85.514L55.42 96.75C52.014 101.014 49.215 105.584 47.02 110.275L31.08 104.425L30.39 106.305L30.297 106.559L30.217 106.815L29.27 109.948L29.192 110.203L29.13 110.463L28.37 113.609L28.308 113.866L28.262 114.126L27.686 117.278L27.639 117.533L27.609 117.791L27.214 120.937L27.181 121.192L27.163 121.45L26.943 124.583L26.927 124.839L26.923 125.095L26.913 125.753L41.936 125.976C40.816 131.919 40.611 137.861 41.583 143.41L29.876 147.185L30.429 148.901L30.509 149.151L30.603 149.395L31.645 152.099L31.741 152.347L31.851 152.591L33.031 155.198L33.144 155.448L33.27 155.688L34.586 158.194L34.716 158.441L34.861 158.681L36.308 161.076L36.456 161.322L36.62 161.56L38.19 163.834L38.36 164.08L38.545 164.312L40.238 166.457L49.15 159.417C49.43 159.725 49.72 160.03 50.016 160.33C53.371 163.72 57.368 166.137 61.521 167.494L53.569 178.918L54.071 179.268L54.269 179.406L54.474 179.533L56.094 180.54L56.312 180.677L56.539 180.8L58.141 181.68L58.378 181.81L58.624 181.927L60.208 182.679L60.468 182.802L60.733 182.908L62.3 183.535L62.578 183.648L62.863 183.742L64.413 184.25L64.709 184.347L65.011 184.427L66.541 184.817L66.853 184.897L67.171 184.955L68.681 185.232L69.007 185.292L69.335 185.328L70.827 185.492L71.159 185.529L71.493 185.543L72.966 185.6L73.302 185.614L73.636 185.604L75.091 185.556L75.423 185.546L75.753 185.512L77.19 185.362L77.516 185.328L77.836 185.271L78.116 185.223L75.799 172.007L75.372 167.925C79.836 166.725 83.725 164.491 87.22 161.733L99.105 173.489L99.791 172.796L99.899 172.686L100.003 172.576L101.169 171.316L101.265 171.214L101.358 171.107L102.503 169.793L102.589 169.693L102.673 169.591L103.8 168.223L103.914 168.085L104.024 167.94L106.214 165.057L106.344 164.887L106.467 164.71L108.577 161.65L108.684 161.495L108.784 161.337L110.812 158.127L110.902 157.985L110.986 157.841L111.666 156.675L99.026 149.305C102.746 144.375 105.956 139.065 108.629 133.862L120.579 138.918L121.949 135.685L121.981 135.605L122.015 135.525L123.455 131.933L123.485 131.86L123.515 131.788L124.87 128.238L124.896 128.173L124.922 128.103L126.189 124.623L126.212 124.561L126.232 124.499L127.415 121.109L127.445 121.026L127.472 120.942L127.538 120.74L115.621 116.834C116.951 111.376 116.576 105.918 114.978 100.844L130.398 97.799L130.188 96.729L130.118 96.371L130.018 96.018L129.416 93.872L129.322 93.542L129.205 93.215L128.439 91.099L128.329 90.791L128.196 90.491L127.274 88.411L127.149 88.128L127.005 87.852L125.935 85.82L125.798 85.558L125.643 85.304L124.436 83.324L124.289 83.082L124.129 82.849L122.792 80.929L122.636 80.703L122.468 80.489L121.01 78.636L120.846 78.426L120.67 78.226L119.656 77.081L107.553 87.761C107.461 87.655 107.373 87.543 107.281 87.438C103.995 83.742 99.851 80.618 94.893 78.862L101.225 63.838L100.18 63.396L99.91 63.283L99.635 63.188L97.447 62.423L97.157 62.323L96.864 62.241L94.651 61.626L94.343 61.54L94.026 61.475L91.799 61.018L91.467 60.952L91.13 60.906L88.895 60.616L88.54 60.568L88.183 60.551L85.95 60.431L85.57 60.411Z" class="" fill="#7ed321" fill-opacity="1"></path><path d="M256.06 94.205C244.358 94.467 233.072 100.651 226.793 111.527C217.225 128.1 222.903 149.293 239.477 158.861C256.05 168.431 277.24 162.751 286.809 146.179C296.376 129.606 290.699 108.413 274.126 98.845C268.429 95.555 262.186 94.069 256.058 94.205Z" class="selected" fill="#f5a623" fill-opacity="1"></path><path d="M86.31 96.043C86.87 96.038 87.41 96.133 88.004 96.287C89.587 96.695 91.564 97.895 93.314 99.863C96.814 103.801 98.302 110.263 97.187 113.403C94.045 122.253 86.767 135.995 79.343 143.687C75.631 147.534 72.028 149.617 69.899 150.035C67.769 150.455 66.603 150.531 63.296 147.189C60.326 144.189 58.329 135.359 61.363 124.979C64.4 114.602 71.78 103.678 83.07 97.12C84.14 96.5 84.977 96.188 85.746 96.084C85.938 96.058 86.126 96.044 86.313 96.044Z" class="" fill="#b8e986" fill-opacity="1"></path><path d="M346.17 112.871C338.246 112.871 331.822 119.296 331.822 127.221C331.822 135.143 338.246 141.567 346.17 141.567C354.094 141.567 360.518 135.143 360.518 127.22C360.518 119.295 354.094 112.87 346.17 112.87Z" class="" fill="#b8e986" fill-opacity="1"></path><path d="M384.232 173.721C367.106 174.105 350.587 183.158 341.396 199.077C327.391 223.335 335.703 254.353 359.961 268.357C384.218 282.363 415.233 274.049 429.238 249.792C443.243 225.536 434.935 194.519 410.678 180.514C402.338 175.699 393.203 173.522 384.232 173.724Z" class="" fill="#f8e71c" fill-opacity="1"></path><path d="M92.332 250.964L90.434 268.36C89.432 268.19 88.416 268.05 87.374 267.955C85.964 267.829 84.562 267.811 83.174 267.893C80.557 268.046 77.991 268.566 75.508 269.393L69.623 253.859L67.963 254.487L67.763 254.563L67.563 254.649L65.678 255.466L65.48 255.55L65.287 255.646L63.423 256.556L63.229 256.648L63.042 256.752L61.208 257.754L61.018 257.857L60.836 257.969L59.033 259.063L58.85 259.175L58.672 259.295L56.906 260.481L56.726 260.603L56.556 260.731L54.826 262.011L54.654 262.141L54.486 262.276L52.803 263.649L52.637 263.784L52.474 263.929L50.886 265.353L62 277.767C60.568 279.154 59.22 280.659 57.973 282.274C56.053 284.761 54.343 287.514 52.855 290.497L48.208 288.372L37.833 283.054L37.786 283.147L37.691 283.333L37.605 283.523L36.555 285.821L36.468 286.009L36.39 286.199L35.423 288.591L35.347 288.781L35.277 288.974L34.397 291.454L34.331 291.644L34.271 291.837L33.483 294.411L33.425 294.601L33.375 294.794L32.679 297.458L32.629 297.646L32.589 297.838L31.993 300.594L31.953 300.784L31.919 300.971L31.477 303.518L47.614 306.318C46.734 310.908 46.26 315.81 46.26 320.994L46.26 321.019C46.262 321.862 46.283 322.691 46.295 323.526L30.503 324.089L30.667 328.719L30.671 328.823L30.677 328.927L30.977 334.117L30.983 334.224L30.991 334.329L31.403 339.429L31.413 339.536L31.423 339.644L31.809 343.364L47.337 341.749C47.967 347.919 48.871 353.881 50.024 359.639L34.814 362.699L35.209 364.659L35.229 364.772L35.256 364.884L36.291 369.44L36.316 369.553L36.344 369.666L37.474 374.133L37.504 374.243L37.534 374.357L38.76 378.734L38.79 378.848L38.826 378.958L39.668 381.698L54.478 377.148C56.314 383.038 58.422 388.678 60.788 394.058L46.5 400.11L46.62 400.396L46.668 400.51L46.718 400.62L48.463 404.46L48.513 404.57L48.568 404.68L50.393 408.432L50.447 408.542L50.501 408.65L52.403 412.313L52.463 412.423L52.52 412.529L54.5 416.101L54.558 416.208L54.621 416.314L55.525 417.848L68.935 409.958C72.015 415.191 75.352 420.126 78.91 424.758L66.648 434.368L68.646 436.918L68.723 437.016L68.801 437.111L71.246 440.066L71.324 440.16L71.406 440.254L73.91 443.121L73.99 443.215L74.074 443.305L76.634 446.085L76.719 446.175L76.806 446.265L79.419 448.957L79.505 449.044L79.593 449.13L79.79 449.323L90.66 438.203C94.93 442.501 99.406 446.448 104.047 450.043L94.77 462.413L97.217 464.249L97.314 464.321L97.412 464.391L100.346 466.476L100.443 466.546L100.543 466.611L103.513 468.609L103.613 468.676L103.713 468.74L106.719 470.652L106.819 470.717L106.921 470.777L109.961 472.604L110.061 472.664L110.165 472.724L111.331 473.386L118.891 460.053C124.134 463.103 129.509 465.753 134.961 468L129.188 482.047L130.028 482.392L130.135 482.436L130.245 482.476L133.455 483.706L133.562 483.746L133.674 483.786L136.9 484.928L137.01 484.965L137.12 485.001L140.36 486.058L140.47 486.095L140.582 486.128L143.836 487.098L143.946 487.132L144.059 487.162L147.321 488.052L147.435 488.082L147.545 488.108L148.259 488.284L151.862 473.614C157.754 475.121 163.668 476.168 169.54 476.758L167.78 491.806L168.357 491.876L168.475 491.889L168.59 491.899L171.863 492.199L171.98 492.209L172.098 492.217L175.363 492.433L175.483 492.44L175.6 492.446L178.857 492.579L178.977 492.585L179.097 492.587L182.34 492.637L182.58 492.637L185.812 492.602L185.932 492.602L186.052 492.596L187.862 492.529L187.307 477.121C193.204 476.711 198.787 475.506 204.025 473.665L208.525 489.275L209.098 489.11L209.221 489.074L209.343 489.034L211.155 488.459L211.278 488.419L211.398 488.376L213.183 487.756L213.303 487.712L213.423 487.667L215.177 487.001L215.297 486.956L215.415 486.906L217.142 486.196L217.26 486.149L217.375 486.099L219.072 485.344L219.244 485.268L219.414 485.185L222.724 483.555L222.944 483.445L223.162 483.325L226.357 481.535L226.57 481.415L226.777 481.285L227.917 480.565L218.875 466.23C223.601 463.106 227.91 459.47 231.742 455.486L244.112 467.338L245.248 466.152L245.395 466L245.533 465.842L247.903 463.132L248.04 462.978L248.167 462.818L250.417 460.006L250.542 459.851L250.66 459.689L252.79 456.782L252.904 456.626L253.012 456.464L255.02 453.468L255.127 453.308L255.225 453.146L256.605 450.898L242.24 442.098C245.405 437.138 248.014 431.95 250.05 426.688L265.354 432.428L265.477 432.105L265.535 431.947L265.59 431.784L266.732 428.366L266.785 428.206L266.835 428.046L267.852 424.593L267.898 424.433L267.938 424.271L268.83 420.797L268.87 420.637L268.908 420.473L269.672 416.981L269.707 416.819L269.737 416.655L270.373 413.151L270.403 412.987L270.427 412.821L270.487 412.409L254.482 410.091C254.838 407.667 255.082 405.259 255.17 402.885C255.3 399.413 255.407 396.028 255.416 392.733L271.693 392.057L271.62 390.255L271.612 390.071L271.596 389.887L271.322 386.51L271.307 386.323L271.285 386.135L270.879 382.803L270.856 382.61L270.824 382.42L270.284 379.14L270.252 378.942L270.212 378.745L269.539 375.528L269.496 375.326L269.446 375.123L268.639 371.973L268.586 371.765L268.522 371.558L268.44 371.288L253.934 375.726C252.717 370.201 250.596 365.096 246.977 360.509L259.422 351.663L257.76 349.327L257.594 349.093L257.414 348.87L255.516 346.52L255.33 346.29L255.13 346.07L253.092 343.85L252.938 343.68L252.773 343.52L251.703 342.463L251.593 342.353L251.48 342.25L250.374 341.226L250.26 341.119L250.14 341.016L249 340.03L248.88 339.927L248.756 339.827L247.58 338.879L247.455 338.776L247.327 338.68L246.117 337.77L245.987 337.674L245.855 337.582L244.609 336.712L244.476 336.617L244.34 336.529L243.74 336.139L234.447 350.475C230.297 348.393 225.487 346.812 219.98 345.615L222.874 328.04L221.316 327.783L221.166 327.76L221.016 327.74L219.268 327.51L219.121 327.49L218.973 327.474L217.188 327.297L217.043 327.283L216.899 327.273L215.076 327.148L214.934 327.138L214.794 327.133L212.934 327.063L212.794 327.058L212.654 327.056L210.76 327.041L210.623 327.041L210.488 327.044L208.558 327.084L208.422 327.089L208.289 327.095L206.319 327.192L206.192 327.199L206.062 327.211L204.057 327.364L203.931 327.374L203.806 327.387L201.762 327.602L202.68 336.357L201.746 327.605L197.264 328.085L197.07 328.103L197.932 336.177L198.49 342.932C196.452 342.812 194.373 342.707 192.205 342.632L192.202 342.632C188.346 342.495 183.924 342.145 179.272 341.637L179.632 328.771L177.325 328.706L173.839 328.496L170.569 328.186L167.384 327.768L164.422 327.264L162.766 326.911L160.233 338.825C153.07 337.488 146.276 335.878 140.817 334.12L144.159 328.164L148.379 321.597L146.439 320.351L144.849 319.181L143.427 317.987L142.122 316.733L140.914 315.405L139.832 314.035L138.859 312.612L138.354 311.75L124.811 319.69C123.204 314.97 122.053 309 120.611 302.685C120.348 301.525 120.065 300.345 119.771 299.16L134.466 297.86L134.246 295.355L134.226 295.142L134.198 294.93L133.853 292.365L133.823 292.145L133.783 291.929L133.329 289.459L133.289 289.236L133.237 289.013L132.681 286.639L132.628 286.413L132.563 286.188L131.907 283.908L131.841 283.678L131.765 283.45L131.013 281.264L130.933 281.034L130.841 280.806L129.997 278.716L129.903 278.484L129.798 278.258L129.081 276.724L113.864 283.83C113.284 282.868 112.66 281.916 111.974 280.98C109.901 278.157 107.214 275.632 104.024 273.557L107.712 267.894L114.227 259.014L114.152 258.959L113.942 258.807L113.729 258.664L112.111 257.611L111.896 257.471L111.676 257.344L110.009 256.384L109.789 256.258L109.564 256.142L107.854 255.277L107.63 255.164L107.4 255.064L105.65 254.294L105.424 254.194L105.194 254.104L103.404 253.428L103.178 253.342L102.945 253.267L101.123 252.682L100.895 252.609L100.662 252.547L98.812 252.057L98.582 251.997L98.35 251.947L96.47 251.551L96.242 251.501L96.012 251.467L94.109 251.162L93.882 251.127L93.652 251.101L92.332 250.957Z" class="" fill="#417505" fill-opacity="1"></path><path d="M84.962 286.532C85.212 286.538 85.462 286.55 85.707 286.572C92.379 287.17 94.643 288.968 96.905 292.049C99.167 295.129 100.911 300.383 102.388 306.854C103.865 313.324 105.105 320.824 108.043 328.274C110.981 335.726 116.187 343.46 124.941 347.891C142.711 356.881 171.534 360.615 191.541 361.317L191.543 361.317C216.793 362.201 227.607 366.625 231.861 371.565C236.116 376.505 237.107 385.875 236.491 402.195C236.081 413.082 230.805 427.501 221.695 438.681C212.585 449.861 200.221 457.801 185.103 458.546C132.893 461.116 65.213 418.201 64.953 320.986C64.955 308.54 68.443 299.301 72.769 293.694C76.829 288.436 81.193 286.468 84.962 286.532Z" class="" fill="#b8e986" fill-opacity="1"></path><path d="M114.477 368.934C106.552 368.934 100.127 375.358 100.127 383.281C100.127 391.204 106.552 397.628 114.477 397.628C122.399 397.628 128.823 391.204 128.823 383.28C128.823 375.356 122.399 368.932 114.476 368.932Z" class="" fill="#50e3c2" fill-opacity="1"></path><path d="M178.207 386.534C164.734 386.534 153.813 397.458 153.813 410.932C153.813 424.406 164.733 435.33 178.208 435.33C191.683 435.33 202.608 424.406 202.608 410.932C202.608 397.458 191.683 386.535 178.208 386.535Z" class="" fill="#48baff" fill-opacity="1"></path></g></g></svg>