<svg xmlns="http://www.w3.org/2000/svg" viewBox="0 0 512 512" style="height: 512px; width: 512px;"><g class="" transform="translate(-8,5)" style="touch-action: none;"><g><path d="M377 67.5C347.9 67.92 317.9 90.72 308.8 159.2C307.1 171.8 300.4 184 290.6 195.7C297.7 192.7 304.7 190.9 311.6 190.9C316.6 190.9 321.4 191.8 326.1 193.8C345.2 202.2 357 213.5 362.5 226.3C368 239.1 366.8 252.4 363.2 263.9C359.6 275.3 353.6 285.3 348.1 292.8C342.7 300.4 338.5 304.9 335.9 307.2C302.3 337.8 241 344.6 187.7 345.9C144.4 347.6 101.4 342.9 58.58 337.7C58.58 337.7 27.45 347.7 16.59 352.2C68.58 368.1 112.7 363.2 156.2 356.5C208.2 373.8 322 388.1 397.3 319.3C434.9 288.4 433.5 233.2 414.8 167.1L440.7 114.1C438 91.95 408 67.04 377 67.5Z" class="" fill="#48baff" fill-opacity="1"></path><path d="M401.9 100.5C406.3 100.5 409.9 104.1 409.9 108.5C409.9 112.9 406.3 116.5 401.9 116.5C397.5 116.5 393.9 112.9 393.9 108.5C393.9 104.1 397.5 100.5 401.9 100.5Z" class="" fill="#000000" fill-opacity="1"></path><path d="M459.5 115.1L442.7 145C448.9 144.9 455 144.6 459.6 143.9C473.3 140.9 481.6 135.4 495.4 135.6C488.7 124.2 476.3 117.8 459.5 115.1Z" class="" fill="#f8e71c" fill-opacity="1"></path><path d="M310.9 208.7C306.4 208.9 301.1 210.4 294.4 213.7C283.2 219.1 269.1 229.1 251.5 242C221 264.4 179.9 295.3 121.9 326.3C139.3 327.4 162.3 328.4 187.3 327.9C239.1 326.7 297.8 317.5 323.8 293.8L323.9 293.8C323.8 293.9 328.8 288.8 333.5 282.3C338.2 275.8 343.3 267.2 346 258.5C348.8 249.7 349.3 241.2 346 233.4C342.6 225.5 335.2 217.4 318.9 210.4C317.3 209.6 315.6 209.2 313.9 208.9C312.9 208.8 311.9 208.7 310.9 208.7Z" class="selected" fill="#c9c9c9" fill-opacity="1"></path><path d="M308.9 381.7C302.8 383.2 296.8 384.4 290.9 385.3L290.9 423.4C285.1 423.3 279.1 423.4 272.9 423.9L272.9 387.1C266.8 387.5 260.8 387.6 254.9 387.5L254.9 426C250.6 426.7 246.3 427.5 241.9 428.5L241.9 444.5L345.9 444.5C337.9 434.4 324.9 428.1 308.9 425.3Z" class="" fill="#f8e71c" fill-opacity="1"></path></g></g></svg>