<svg xmlns="http://www.w3.org/2000/svg" viewBox="0 0 512 512" style="height: 512px; width: 512px;"><path d="M0 0h512v512H0z" fill="#8b572a" fill-opacity="0"></path><g class="" transform="translate(-1,5)" style="touch-action: none;"><g transform="translate(25.6, 25.6) scale(0.9, 0.9) rotate(0, 256, 256)"><path d="M208.406 21.47C153.886 21.47 109.642 64.84 109.031 119.22L108.907 129.72L98.532 128.406C95.692 128.046 92.916 127.876 89.908 127.876C51.281 127.876 19.846 158.804 19.846 197.406C19.846 236.008 51.368 267.562 89.908 267.562C108.646 267.562 125.222 260.229 137.814 248.156L144.721 241.531L151.189 248.595C160.511 258.783 173.907 265.125 188.876 265.125C207.422 265.125 223.23 255.541 232.22 240.845L240.25 227.72L248.188 240.906C262.968 265.449 288.938 281.626 319.594 281.626C346.027 281.626 369.557 269.344 385 250.25L393.25 240.03L400.188 251.187C409.223 265.667 425.342 275.5 443.594 275.5C471.847 275.5 494.719 252.616 494.719 224.312C494.719 198.312 475.269 176.962 450.279 173.656L439.593 172.25L442.53 161.844C444.422 155.184 445.844 149.088 445.844 143C445.844 104.398 414.321 72.844 375.781 72.844C353.385 72.844 333.717 83.794 320.876 100.406L309.063 115.656L304.407 96.936C293.667 53.689 254.959 21.469 208.407 21.469Z" class="" fill="#ffffff" fill-opacity="1" stroke="#48baff" stroke-opacity="1" stroke-width="3"></path><path d="M381.28 297.343L363.25 302.187L370.28 328.405L344.063 321.375L339.219 339.437L365.436 346.467L346.249 365.655L359.437 378.843L378.624 359.655L385.654 385.875L403.718 381.03L396.685 354.813L422.905 361.843L427.748 343.813L401.528 336.781L420.718 317.595L407.498 304.375L388.31 323.563L381.28 297.345Z" class="" fill="#b57204" fill-opacity="0"></path><path d="M109.22 314.405L102.188 340.625L83 321.437L69.78 334.655L88.97 353.843L62.75 360.843L67.594 378.905L93.814 371.875L86.781 398.093L104.845 402.937L111.875 376.717L131.065 395.905L144.282 382.685L125.096 363.499L151.283 356.469L146.473 338.436L120.253 345.436L127.283 319.249L109.223 314.405Z" class="" fill="#f8e71c" fill-opacity="0"></path><path d="M245.156 362.03L241.312 397.72L212.344 376.562L201.314 391.656L230.281 412.812L197.471 427.344L205.031 444.406L237.876 429.876L234.032 465.594L252.596 467.594L256.44 431.906L285.44 453.062L296.44 437.969L267.44 416.811L300.283 402.281L292.723 385.187L259.909 399.717L263.753 364.03L245.159 362.03Z" class="" fill="#ffffff" fill-opacity="0"></path><path d="M447.219 410.344L439.029 431.469L424.843 413.843L410.28 425.563L424.5 443.186L402.125 446.686L405 465.156L427.375 461.656L419.219 482.78L436.624 489.5L444.78 468.406L459 486.03L473.563 474.313L459.343 456.688L481.719 453.188L478.843 434.718L456.468 438.218L464.654 417.094L447.217 410.344Z" class="selected" fill="#ffe0af" fill-opacity="0"></path></g></g></svg>