<svg xmlns="http://www.w3.org/2000/svg" viewBox="0 0 512 512" style="height: 512px; width: 512px;"><path d="M0 0h512v512H0z" fill="transparent" fill-opacity="0"></path><g class="" transform="translate(-12,1)" style="touch-action: none;"><g><path d="M230.218 16C215.973 16 178.655 27.946 178.655 42.718L178.655 69.436L127.562 69.436C99.072 69.436 76 93.326 76 122.874L76 442.56C76 472.11 99.072 496 127.563 496L384.438 496C412.928 495.998 436 472.108 436 442.56L436 122.874C436 93.327 412.928 69.437 384.437 69.437L333.344 69.437L333.344 42.718C333.344 27.944 296.027 16 281.782 16L230.22 16Z" class="" fill="#4a4a4a" fill-opacity="1"></path><path d="M256 122.875L256 256L358.657 256L256 442.563L256 309.438L153.343 309.438L256 122.875Z" class="selected" fill="#f8e71c" fill-opacity="1"></path></g></g></svg>