<svg xmlns="http://www.w3.org/2000/svg" viewBox="0 0 512 512" style="height: 512px; width: 512px;"><defs><radialGradient id="gradient-1"><stop offset="0%" stop-color="#b57204" stop-opacity="1"></stop><stop offset="100%" stop-color="#8b572a" stop-opacity="1"></stop></radialGradient><radialGradient id="gradient-11"><stop offset="0%" stop-color="#417505" stop-opacity="1"></stop><stop offset="100%" stop-color="#7ed321" stop-opacity="1"></stop></radialGradient><radialGradient id="gradient-12"><stop offset="0%" stop-color="#417505" stop-opacity="1"></stop><stop offset="100%" stop-color="#7ed321" stop-opacity="1"></stop></radialGradient><radialGradient id="gradient-13"><stop offset="0%" stop-color="#417505" stop-opacity="1"></stop><stop offset="100%" stop-color="#7ed321" stop-opacity="1"></stop></radialGradient><radialGradient id="gradient-14"><stop offset="0%" stop-color="#417505" stop-opacity="1"></stop><stop offset="100%" stop-color="#7ed321" stop-opacity="1"></stop></radialGradient><radialGradient id="gradient-15"><stop offset="0%" stop-color="#417505" stop-opacity="1"></stop><stop offset="100%" stop-color="#7ed321" stop-opacity="1"></stop></radialGradient><radialGradient id="gradient-16"><stop offset="0%" stop-color="#417505" stop-opacity="1"></stop><stop offset="100%" stop-color="#7ed321" stop-opacity="1"></stop></radialGradient><radialGradient id="gradient-17"><stop offset="0%" stop-color="#417505" stop-opacity="1"></stop><stop offset="100%" stop-color="#7ed321" stop-opacity="1"></stop></radialGradient><radialGradient id="gradient-18"><stop offset="0%" stop-color="#417505" stop-opacity="1"></stop><stop offset="100%" stop-color="#7ed321" stop-opacity="1"></stop></radialGradient><radialGradient id="gradient-19"><stop offset="0%" stop-color="#417505" stop-opacity="1"></stop><stop offset="100%" stop-color="#7ed321" stop-opacity="1"></stop></radialGradient><radialGradient id="gradient-20"><stop offset="0%" stop-color="#417505" stop-opacity="1"></stop><stop offset="100%" stop-color="#7ed321" stop-opacity="1"></stop></radialGradient><radialGradient id="gradient-21"><stop offset="0%" stop-color="#417505" stop-opacity="1"></stop><stop offset="100%" stop-color="#7ed321" stop-opacity="1"></stop></radialGradient><radialGradient id="gradient-22"><stop offset="0%" stop-color="#417505" stop-opacity="1"></stop><stop offset="100%" stop-color="#7ed321" stop-opacity="1"></stop></radialGradient><radialGradient id="gradient-23"><stop offset="0%" stop-color="#417505" stop-opacity="1"></stop><stop offset="100%" stop-color="#7ed321" stop-opacity="1"></stop></radialGradient><radialGradient id="gradient-24"><stop offset="0%" stop-color="#417505" stop-opacity="1"></stop><stop offset="100%" stop-color="#7ed321" stop-opacity="1"></stop></radialGradient><radialGradient id="gradient-25"><stop offset="0%" stop-color="#417505" stop-opacity="1"></stop><stop offset="100%" stop-color="#7ed321" stop-opacity="1"></stop></radialGradient><radialGradient id="gradient-26"><stop offset="0%" stop-color="#417505" stop-opacity="1"></stop><stop offset="100%" stop-color="#7ed321" stop-opacity="1"></stop></radialGradient></defs><g class="" transform="translate(1,0)" style="touch-action: none;"><g><path d="M256 24C244.2 24 231.5 34.15 221.4 54.32C214.3 68.69 208.8 87.51 206.3 108.8C210.9 112.8 215.5 117 220 121.5C231.4 132.8 241.2 144.8 249.3 156.8C251.5 156.7 253.8 156.6 256 156.6C258.4 156.6 260.8 156.7 263.2 156.9C271.3 144.8 281.1 132.9 292.5 121.5C296.8 117.2 301.3 113 305.8 109.2C303.2 87.76 297.8 68.78 290.6 54.32C280.5 34.15 267.8 24 256 24Z" class="selected" fill="#48baff" fill-opacity="1"></path><path d="M113.2 84.12C104 84.25 96.87 86.88 92.21 91.56C83.89 99.88 82.05 116 89.21 137.4C96.36 158.8 112.1 183.9 134.8 206.6C143.1 214.9 151.8 222.3 160.4 228.7C169.9 195.5 196.3 169.4 229.6 160.2C223.2 151.4 215.7 142.6 207.3 134.2C184.6 111.5 159.5 95.72 138.1 88.56C128.7 85.43 120.3 84.02 113.2 84.12Z" class="" fill="#4a90e2" fill-opacity="1"></path><path d="M399.3 84.12C392.2 84.02 383.8 85.45 374.5 88.6C353.1 95.74 328 111.5 305.3 134.2C296.8 142.7 289.3 151.5 282.9 160.3C316.1 169.6 342.3 195.8 351.7 229C360.5 222.5 369.3 215 377.7 206.6C400.4 183.9 416.1 158.8 423.3 137.4C430.5 116 428.6 99.91 420.3 91.57C415.6 86.88 408.5 84.24 399.3 84.12Z" class="" fill="#4a90e2" fill-opacity="1"></path><path d="M256 174.6C210.9 174.6 174.6 210.9 174.6 256C174.6 301.1 210.9 337.4 256 337.4C301.1 337.4 337.4 301.1 337.4 256C337.4 210.9 301.1 174.6 256 174.6Z" class="" fill="#f8e71c" fill-opacity="1"></path><path d="M109.8 206.2C88.13 208.7 68.93 214.2 54.32 221.4C34.15 231.5 24 244.2 24 256C24 267.8 34.15 280.5 54.32 290.6C68.8 297.8 87.8 303.2 109.2 305.8C113.3 301.1 117.6 296.4 122.1 291.9C133.3 280.7 145 271 156.8 263C156.7 260.7 156.6 258.4 156.6 256C156.6 253.4 156.7 250.8 156.9 248.3C145 240.3 133.3 230.6 122.1 219.4C117.8 215.1 113.7 210.6 109.8 206.2Z" class="" fill="#48baff" fill-opacity="1"></path><path d="M402.6 206.2C398.7 210.6 394.7 215 390.4 219.3C379 230.7 367.1 240.5 355.1 248.6C355.3 251 355.4 253.5 355.4 256C355.4 258.2 355.3 260.5 355.2 262.7C367.1 270.7 379 280.5 390.3 291.8C394.9 296.4 399.2 301 403.2 305.7C424.5 303.2 443.3 297.7 457.7 290.6C477.9 280.5 488 267.8 488 256C488 244.2 477.9 231.5 457.7 221.4C443.2 214.2 424.1 208.7 402.6 206.2Z" class="" fill="#48baff" fill-opacity="1"></path><path d="M351.8 282.3C342.7 315.7 316.5 342.1 283.3 351.6C289.6 360.2 296.9 368.8 305.2 377C327.9 399.7 353 415.4 374.4 422.6C395.8 429.7 411.9 427.9 420.2 419.6C428.6 411.3 430.4 395.1 423.2 373.7C416.1 352.3 400.3 327.2 377.6 304.5C369.2 296.1 360.6 288.7 351.8 282.3Z" class="" fill="#4a90e2" fill-opacity="1"></path><path d="M160.2 282.7C151.6 289.1 143.1 296.4 134.8 304.6C112.1 327.3 96.37 352.4 89.23 373.8C82.02 395.2 83.86 411.3 92.2 419.7C100.5 428 116.7 429.9 138 422.6C159.4 415.5 184.5 399.7 207.2 377C215.4 368.8 222.7 360.3 229.1 351.7C195.8 342.3 169.6 316 160.2 282.7Z" class="" fill="#4a90e2" fill-opacity="1"></path><path d="M248.8 355.1C240.8 366.9 231.2 378.6 220 389.8C215.5 394.3 210.9 398.6 206.2 402.6C208.7 424.1 214.2 443.2 221.4 457.7C231.5 477.9 244.2 488 256 488C267.8 488 280.5 477.9 290.6 457.7C297.8 443.1 303.3 423.9 305.8 402.2C301.3 398.3 296.8 394.1 292.4 389.7C281.2 378.5 271.6 366.9 263.7 355.1C261.1 355.3 258.6 355.4 256 355.4C253.6 355.4 251.2 355.3 248.8 355.1Z" class="" fill="#48baff" fill-opacity="1"></path></g></g></svg>