<svg xmlns="http://www.w3.org/2000/svg" viewBox="0 0 512 512" style="height: 512px; width: 512px;"><path d="M0 0h512v512H0z" fill="transparent" fill-opacity="0"></path><g class="" transform="translate(0,0)" style="touch-action: none;"><g><path d="M363.79 19.94C362.677 19.95 361.555 19.975 360.426 20.012C342.353 20.604 322.083 24.699 299.934 32.24C293.334 34.487 286.579 37.043 279.684 39.883C285.461 43.93 290.407 49.188 294.129 55.635C309.955 83.045 296.137 118.855 266.009 136.245C235.881 153.638 197.957 147.699 182.129 120.289C177.987 113.113 175.895 105.362 175.575 97.517C167.081 103.242 158.501 109.22 149.827 115.505C131.103 129.073 121.917 143.823 118.849 159.563C115.781 175.303 118.993 192.649 127.632 210.853C144.91 247.26 184 285.883 229.382 315.603C269.752 342.04 315.128 361.499 353.422 367.858C353.666 328.251 386.039 296.018 425.704 296.018C433.929 296.018 441.834 297.424 449.21 299.975C457.798 256.955 462.567 219.395 463.99 187.027C457.05 192.117 448.8 195.217 439.893 195.217C426.281 195.217 414.185 188.014 405.983 177.452C397.783 166.89 393.033 152.859 393.033 137.556C393.033 122.252 397.783 108.22 405.983 97.658C414.185 87.096 426.281 79.892 439.893 79.892C444.121 79.892 448.203 80.588 452.066 81.862C442.248 55.01 427.066 38.132 407.742 28.789C395.212 22.729 380.474 19.793 363.789 19.937Z" class="" fill="#d0021b" fill-opacity="1"></path><path d="M257.235 49.913C237.697 59.299 217.192 70.805 195.985 84.193C193.122 93.51 193.775 103.081 198.315 110.946C208.125 127.932 233.875 133.216 256.665 120.062C279.455 106.907 287.75 81.965 277.942 64.982C273.61 57.478 266.16 52.272 257.235 49.914Z" class="" fill="#fff" fill-opacity="1"></path><path d="M439.892 98.587C432.784 98.587 426.122 102.199 420.745 109.124C415.369 116.049 411.722 126.177 411.722 137.56C411.722 148.94 415.369 159.067 420.745 165.992C426.122 172.917 432.785 176.532 439.892 176.532C446.999 176.532 453.659 172.917 459.036 165.992C461.086 163.352 462.884 160.242 464.326 156.777C463.963 142.367 462.813 129.215 460.926 117.299C460.528 114.779 460.093 112.333 459.634 109.929C459.436 109.659 459.239 109.384 459.036 109.122C453.66 102.197 446.999 98.585 439.892 98.585Z" class="" fill="#fff" fill-opacity="1"></path><path d="M289.742 164.112C326.215 164.112 355.982 193.877 355.982 230.346C355.982 266.813 326.215 296.578 289.742 296.578C253.272 296.578 223.502 266.815 223.502 230.346C223.502 193.876 253.272 164.113 289.742 164.113Z" class="" fill="#ffffff" fill-opacity="0"></path><path d="M289.742 182.802C263.369 182.802 242.192 203.977 242.192 230.346C242.192 256.714 263.369 277.889 289.742 277.889C316.117 277.889 337.292 256.712 337.292 230.346C337.292 203.976 316.117 182.803 289.742 182.803Z" class="" fill="#fff" fill-opacity="1"></path><path d="M162.907 287.153C158.981 290.255 155.22 293.689 151.677 297.481C157.01 310.821 166.607 324.911 181.237 339.561L168.015 352.767C163.663 348.409 159.645 344.042 155.962 339.659C132.402 360.004 108.708 378.609 85.897 394.286C67.541 406.902 59.639 420.936 57.951 434.063C56.261 447.19 60.838 460.033 70.173 470.341C88.843 490.954 126.073 500.921 166.973 473.989C192.223 457.361 216.253 428.609 237.405 393.847C230.98 391.143 224.883 387.949 219.552 384.315L230.078 368.872C241.724 376.812 264.09 383.462 277.992 384.632C281.656 378.744 284.754 373.078 287.354 367.632C264.228 358.015 241.04 345.578 219.147 331.24C198.877 317.966 179.732 303.083 162.907 287.154Z" class="selected" fill="#c9c9c9" fill-opacity="1"></path><path d="M425.707 314.713C395.99 314.713 372.103 338.597 372.103 368.308C372.103 368.853 372.128 369.392 372.143 369.933C390.51 370.85 406.271 368.066 418.106 361.528C430.963 354.428 439.862 343.248 443.993 324.683C444.463 322.577 444.913 320.497 445.363 318.415C439.283 316.032 432.657 314.712 425.706 314.712Z" class="" fill="#ffffff" fill-opacity="1"></path></g></g></svg>