<svg xmlns="http://www.w3.org/2000/svg" viewBox="0 0 512 512" style="height: 512px; width: 512px;"><path d="M0 0h512v512H0z" fill="#8b572a" fill-opacity="0"></path><g class="" transform="translate(-1,5)" style="touch-action: none;"><g transform="translate(25.6, 25.6) scale(0.9, 0.9) rotate(0, 256, 256)"><path d="M130.594 154.72C69.428 154.72 19.656 204.49 19.656 265.656C19.656 326.822 69.428 376.626 130.594 376.626C183.758 376.626 228.34 339.009 239.094 289C245.141 281.023 258.271 280.342 264.781 288.75C275.434 338.885 320.061 376.625 373.314 376.625C434.479 376.625 484.282 326.822 484.282 265.655C484.282 204.491 434.48 154.719 373.315 154.719C323.478 154.719 281.202 187.769 267.252 233.093C262.428 230.85 257.148 229.74 251.877 229.78C246.665 229.82 241.46 230.962 236.721 233.187C222.791 187.814 180.466 154.719 130.595 154.719Z" class="" fill="#000000" fill-opacity="1"></path><path d="M130.594 173.406C181.659 173.406 222.874 214.591 222.874 265.656C222.874 284.496 217.27 301.979 207.624 316.562C174.24 278.926 89.67 273.28 56.44 320.625C45.068 305.281 38.346 286.279 38.346 265.655C38.346 252.509 41.076 240.022 46.002 228.719C52.102 235.049 62.666 239.249 74.69 239.249C93.585 239.249 108.908 228.909 108.908 216.155C108.908 203.403 93.585 193.061 74.688 193.061C74.298 193.061 73.92 193.084 73.533 193.093C89.221 180.751 109.023 173.405 130.597 173.405Z" class="selected" fill="#ffffff" fill-opacity="1"></path><path d="M373.314 173.406C424.378 173.406 465.594 214.591 465.594 265.656C465.594 284.496 459.989 301.979 450.344 316.562C416.951 278.936 332.384 273.282 299.156 320.625C287.784 305.281 281.062 286.279 281.062 265.655C281.062 252.509 283.792 240.022 288.719 228.719C294.819 235.049 305.382 239.249 317.405 239.249C336.301 239.249 351.625 228.909 351.625 216.155C351.625 203.403 336.301 193.061 317.405 193.061C317.015 193.061 316.635 193.084 316.249 193.093C331.936 180.751 351.737 173.405 373.312 173.405Z" class="" fill="#ffffff" fill-opacity="1"></path><path d="M251.844 248.281C255.924 248.201 260.024 249.581 263.156 252.531C262.646 256.843 262.376 261.211 262.376 265.657L262.376 265.687C258.968 264.69 255.414 264.193 251.876 264.22C248.388 264.245 244.906 264.804 241.562 265.812L241.562 265.656C241.562 261.264 241.282 256.948 240.782 252.686C243.768 249.884 247.794 248.361 251.844 248.281Z" class="" fill="#ffffff" fill-opacity="1"></path></g></g></svg>