<svg xmlns="http://www.w3.org/2000/svg" viewBox="0 0 512 512" style="height: 512px; width: 512px;"><path d="M0 0h512v512H0z" fill="#8b572a" fill-opacity="0"></path><g class="" transform="translate(-1,5)" style="touch-action: none;"><g transform="translate(25.6, 25.6) scale(0.9, 0.9) rotate(0, 256, 256)"><path d="M256 19.27L25.637 249.638L19.27 256L32 268.73L38.363 262.363L256 44.727L473.637 262.363L480 268.73L492.73 256L486.363 249.637Z" class="" fill="#d0021b" fill-opacity="1"></path><path d="M96 48L96 155.273L160 91.271L160 48Z" class="" fill="#b57204" fill-opacity="1"></path><path d="M256 68.727L64 260.727L64 486L128 486L128 320L224 320L224 486L448 486L448 260.727Z" class="selected" fill="#f8e71c" fill-opacity="1"></path><path d="M288 320L384 320L384 400L288 400Z" class="" fill="#ffffff" fill-opacity="1"></path></g></g></svg>