<svg xmlns="http://www.w3.org/2000/svg"
     viewBox="0 0 512 512"
     style="height: 512px; width: 512px;">
    <path d="M0 0h512v512H0z" fill="#8b572a" fill-opacity="0"></path>
    <g class="" transform="translate(0,2)" style="touch-action: none;">
        <g transform="translate(25.6, 25.6) scale(0.9, 0.9) rotate(0, 256, 256)">
            <path d="M107.156 17.72C84.641 148.572 17.656 174.947 17.656 266.688C17.656 312.718 63.141 346.531 107.156 346.531C108.856 346.531 110.558 346.465 112.25 346.376C113.07 339.906 114.125 333.636 115.375 327.532C112.413 327.922 109.38 328.127 106.312 328.127C67.802 328.127 36.656 296.639 36.656 257.407C36.656 218.177 67.801 186.69 106.312 186.69C106.888 186.69 107.459 186.707 108.032 186.72C90.827 196.137 79.156 214.92 79.156 236.22C79.156 264.147 99.219 287.72 125.5 291.565C136.042 262.289 150.937 236.022 166.625 208.44C169.678 203.072 172.773 197.618 175.875 192.096C154.945 147.149 122.303 102.746 107.155 17.721Z" class="" fill="#48baff" fill-opacity="1"></path>
            <path d="M403.687 17.72C388.782 104.344 354.369 145.175 332.812 189.5C337.149 197.9 341.478 206.1 345.719 214.125C345.989 214.639 346.259 215.143 346.529 215.655C359.193 198.072 379.672 186.687 402.812 186.687C403.397 186.687 403.979 186.704 404.562 186.719C387.348 196.132 375.655 214.911 375.655 236.219C375.655 266.774 399.7 292.124 429.593 292.124C446.297 292.124 461.163 284.224 471.03 271.904C464.473 304.12 436.445 328.124 402.813 328.124C399.653 328.124 396.547 327.879 393.5 327.468C394.925 333.578 396.154 339.846 397.156 346.248C399.336 346.411 401.51 346.528 403.686 346.528C448.691 346.528 491.438 314.886 491.438 271.186C491.438 183.122 426.954 148.323 403.688 17.716Z" class="" fill="#48baff" fill-opacity="1"></path>
            <path d="M256.72 52.47C237.906 125.8 209.673 175.58 185.03 218.906C155.35 271.092 131.344 313.232 131.344 380.219C131.344 411.631 146.776 438.925 170.438 458.843C194.098 478.76 225.886 490.749 256.563 490.749C288.223 490.749 319.296 479.471 342.031 460.843C364.767 442.215 379.126 416.745 379.126 387.063C379.126 322.871 355.866 278.635 327.001 223.999C303.046 178.659 275.641 126.307 256.721 52.469Z" class="selected" fill="#48baff" fill-opacity="1"></path>
            <path d="M255.22 265.03C261.668 265.03 267.97 265.65 274.094 266.78C242.994 275.757 220.25 305.455 220.25 340.28C220.25 382.102 253.03 416.594 293.72 416.594C322.577 416.594 347.44 399.226 359.47 374.219C357.707 431.234 311.753 476.593 255.22 476.593C197.566 476.593 150.906 429.413 150.906 370.813C150.906 312.21 197.566 265.03 255.219 265.03Z" class="" fill="#ffffff" fill-opacity="1"></path>
        </g>
    </g>
</svg>
