<svg xmlns="http://www.w3.org/2000/svg" viewBox="0 0 512 512" style="height: 512px; width: 512px;"><path d="M0 0h512v512H0z" fill="#ffffff" fill-opacity="0"></path><g class="" transform="translate(-11,-1)" style="touch-action: none;"><g><path d="M221.406 138.375C177.981 138.375 152.049 169.002 215.031 169C258.457 168.998 284.391 138.373 221.407 138.375Z" class="selected" fill="#d0021b" fill-opacity="0"></path><path d="M358.094 155.813C314.947 155.813 283.628 165.705 275.156 183.281C191.606 180.781 122.281 209.989 140.25 230.001C142.592 232.608 140.55 235.571 135 235.845C-3.955 242.672 -29.758 305.22 104.03 324.595C109.692 325.417 110.822 329.529 108.125 332.189C75.631 364.232 146.515 387.689 251.781 387.689C359.309 387.689 417.511 369.179 398.971 339.189C394.879 332.571 396.958 327.879 405.971 326.939C548.218 312.145 512.121 231.879 389.626 224.157C364.666 222.587 370.586 210.73 379.688 209.563C481.805 196.485 419.658 155.813 358.095 155.813Z" class="" fill="#48baff" fill-opacity="1"></path><path d="M451.719 359.093C416.086 359.748 398.362 383.516 453.155 387.313C493.452 390.105 517.508 363.335 459.061 359.281C456.543 359.108 454.093 359.051 451.718 359.095Z" class="" fill="#7ed321" fill-opacity="0"></path><path d="M107.374 399.406C39.004 399.408 8.211 448.754 107.374 448.75C175.744 448.748 206.537 399.402 107.374 399.406Z" class="" fill="#48baff" fill-opacity="0"></path></g></g></svg>