<svg xmlns="http://www.w3.org/2000/svg" viewBox="0 0 512 512" style="height: 512px; width: 512px;"><path d="M0 0h512v512H0z" fill="#ffffff" fill-opacity="0"></path><g class="" transform="translate(-11,-1)" style="touch-action: none;"><g><path d="M416 64C398.327 64 384 78.327 384 96C384 113.673 398.327 128 416 128C433.673 128 448 113.673 448 96C448 78.327 433.673 64 416 64Z" class="" fill="#f8e71c" fill-opacity="1"></path><path d="M273.3 272.7L208.8 287.7L164.6 279.8L47.62 304.9C30.3 334.6 24.17 347.5 20.5 361.1L53.46 361.1C61.22 344.4 68.96 327.6 83.98 310.2L99.35 306.1C87.2 324.3 75.05 342.3 69.83 361.1L126 361.1C130.5 338.4 148.4 316.6 162.3 294.4L178.5 295.6C167.8 307.2 159.8 321.1 155.3 331.6L168.3 326.7C175.7 314.9 179.8 310.2 185.1 304.9L192 308.3C181.9 319.7 182.1 325.3 177.4 338.1L184.5 346.2C193 327 208.2 311.5 221.2 294.9L233.4 291.2C216 313.9 205.5 337.8 192.1 361.1L246.7 361.1C256.1 335.7 270.6 305.9 286.4 286.8L292.8 291.1C284.2 307.1 278.4 322.8 272.8 338.5C308.5 313.5 326.1 310.2 349.5 300C338.4 320.3 327.8 340.8 323.8 361.1L411.1 361.1C407.2 350.4 398.3 328.6 394.4 320.7L407.9 312.4C414.5 323 421.8 332 430.4 339.1L416.6 361.1L489.8 361.1L466 312.4L273.3 272.7Z" class="" fill="#417505" fill-opacity="1"></path><path d="M18 381.1L18 398.9L494 398.9L494 381.1L18 381.1Z" class="selected" fill="#7ed321" fill-opacity="1"></path></g></g></svg>