<svg xmlns="http://www.w3.org/2000/svg" viewBox="0 0 512 512" style="height: 512px; width: 512px;"><path d="M0 0h512v512H0z" fill="transparent" fill-opacity="0"></path><g class="" transform="translate(-12,1)" style="touch-action: none;"><g><path d="M257.188 45.875C231.902 45.288 211.128 65.707 211.28 91C210.67 125.533 247.672 147.777 277.884 131.039C292.402 122.995 301.293 107.595 301 91C301.147 66.526 281.654 46.449 257.187 45.875Z" class="" fill="#d0021b" fill-opacity="1"></path><path d="M91.905 90.625C66.632 90.04 45.865 110.44 46 135.72C45.39 170.253 82.392 192.497 112.604 175.759C127.122 167.715 136.013 152.315 135.72 135.72C135.851 111.258 116.362 91.199 91.906 90.625Z" class="" fill="#d0021b" fill-opacity="1"></path><path d="M422.186 90.625C396.913 90.039 376.145 110.439 376.28 135.719C375.67 170.252 412.672 192.496 442.884 175.758C457.402 167.714 466.293 152.314 466 135.719C466.131 111.257 446.643 91.198 422.187 90.624Z" class="" fill="#d0021b" fill-opacity="1"></path><path d="M256.845 210.97C240.014 210.576 226.183 224.164 226.28 241C225.819 263.986 250.414 278.851 270.552 267.757C280.273 262.402 286.222 252.097 286 241C286.094 224.715 273.125 211.357 256.844 210.97Z" class="" fill="#f56923" fill-opacity="1"></path><path d="M121.845 240.97C105.014 240.576 91.183 254.164 91.28 271C90.819 293.986 115.414 308.851 135.552 297.757C145.273 292.402 151.222 282.097 151 271C151.094 254.715 138.125 241.357 121.844 240.97Z" class="" fill="#f56123" fill-opacity="1"></path><path d="M391.845 240.97C375.014 240.576 361.183 254.164 361.28 271C360.819 293.986 385.414 308.851 405.552 297.757C415.273 292.402 421.222 282.097 421 271C421.094 254.715 408.125 241.357 391.844 240.97Z" class="" fill="#f56923" fill-opacity="1"></path><path d="M256.345 330.78C247.889 330.585 240.944 337.417 241 345.876C241 357.423 253.5 364.64 263.5 358.866C268.141 356.187 271 351.235 271 345.876C271.053 337.688 264.53 330.97 256.344 330.782Z" class="" fill="#f8e71c" fill-opacity="1"></path><path d="M136.345 345.78C127.889 345.585 120.944 352.417 121 360.876C121 372.423 133.5 379.64 143.5 373.866C148.141 371.187 151 366.235 151 360.876C151.053 352.688 144.53 345.97 136.344 345.782Z" class="" fill="#f8e71c" fill-opacity="1"></path><path d="M376.345 345.78C367.889 345.585 360.944 352.417 361 360.876C361 372.423 373.5 379.64 383.5 373.866C388.141 371.187 391 366.235 391 360.876C391.053 352.688 384.53 345.97 376.344 345.782Z" class="" fill="#f8e71c" fill-opacity="1"></path><path d="M76 375.876C61 375.876 46 405.876 46 405.876C16 405.876 16 405.876 16 435.876L16 465.876L496 465.876L496 435.876C496 405.876 496 405.876 466 405.876C466 405.876 451 375.876 436 375.876C406 375.876 406 420.876 376 420.876C346 420.876 346 375.876 316 375.876C286 375.876 286 420.876 256 420.876C226 420.876 226 375.876 196 375.876C166 375.876 166 420.876 136 420.876C106 420.876 106 375.876 76 375.876Z" class="selected" fill="#f8e71c" fill-opacity="1"></path></g></g></svg>