<svg xmlns="http://www.w3.org/2000/svg" viewBox="0 0 512 512" style="height: 512px; width: 512px;"><path d="M0 0h512v512H0z" fill="#ffffff" fill-opacity="0"></path><g class="" transform="translate(-9,-1)" style="touch-action: none;"><g><path d="M415.03 17.563C410.14 21.173 405.607 25.356 401.53 30.219C388.434 45.843 380.702 67.732 380.094 96.999C359.697 85.043 337.271 80.161 315.531 80.969C292.721 81.814 270.655 88.915 252.531 100.624C231.821 114.006 215.868 133.624 210.031 157.249C205.309 176.369 207.547 197.819 218.471 219.437C212.668 219.062 207.031 218.87 201.564 218.874C199.922 218.874 198.299 218.901 196.689 218.937C158.039 219.785 128.205 230.371 109.251 250.843C86.775 275.118 82.141 311.563 94.971 355.249C69.031 348.956 42.859 349.789 19.064 360.655L19.064 401.561C24.914 396.621 32.104 392.348 40.626 388.874L40.656 388.874L121.876 443.968C121.896 444.728 121.908 445.498 121.906 446.248C121.892 459.77 118.954 471.083 113.126 480.623L19.063 415.593L19.063 438.31L97.97 492.842L127.344 492.842C136.051 479.629 140.574 463.77 140.594 446.279C140.614 427.912 135.957 407.706 126.781 385.843C178.444 402.023 224.546 389.191 250.563 359.499C275.781 330.719 280.708 286.757 256.22 243.624C291.09 249.12 320.83 247.734 344.5 239.28L344.72 239.594L345.812 238.814C354.339 235.644 362.07 231.554 368.937 226.5C394.445 207.73 405.797 176.333 402.031 136.875C430.416 155.581 463.288 158.781 494.345 155.688L494.345 81.25L471.095 17.562L415.03 17.562Z" class="" fill="#000000" fill-opacity="1"></path><path d="M452.22 20.438L488.75 120.375C480.165 121.165 470.806 121.135 460.75 120.312L426.812 32.094C434.145 26.82 442.718 23.049 452.219 20.437Z" class="selected" fill="#c9c9c9" fill-opacity="1"></path><path d="M412.436 46.75L439.656 117.53C426.964 115.285 413.396 111.95 398.999 107.375C397.937 79.177 403.343 59.997 412.437 46.75Z" class="" fill="#c9c9c9" fill-opacity="1"></path><path d="M336.811 116.438C350.211 117.092 364.986 119.118 380.905 122.531C385.27 144.345 385.153 162.499 381.061 177.281L336.811 116.438Z" class="" fill="#7ed321" fill-opacity="1"></path><path d="M313.905 116.718L372.125 196.75C368.245 202.413 363.491 207.305 357.875 211.438C355.677 213.054 353.32 214.544 350.812 215.938L284.187 122.625C292.849 119.615 302.777 117.609 313.905 116.719Z" class="" fill="#4a90e2" fill-opacity="1"></path><path d="M267.093 130.844L333 223.188C323.97 225.768 313.693 227.322 302.25 227.781L247.094 152C251.396 144.43 257.118 138.085 264.156 132.906C265.106 132.206 266.086 131.503 267.094 130.844Z" class="" fill="#d0021b" fill-opacity="1"></path><path d="M239.405 173.25L278.718 227.28C267.883 226.432 256.246 224.75 243.842 222.187L243.779 222.031L242.249 221.845C241.935 221.778 241.626 221.725 241.311 221.657C241.108 221.352 240.917 221.057 240.718 220.751C237.163 202.364 236.818 186.578 239.404 173.251Z" class="" fill="#f8e71c" fill-opacity="1"></path><path d="M201.155 237.656C210.145 237.64 219.865 238.244 230.093 239.344C235.663 255.139 238.785 269.324 239.687 281.969L193.062 237.843C194.476 237.78 195.894 237.72 197.342 237.687C198.596 237.657 199.872 237.657 201.155 237.655Z" class="" fill="#7ed321" fill-opacity="1"></path><path d="M168.843 240.626L238.343 306.406C236.013 317.873 231.203 327.492 224.187 335.281L137.655 251.876C146.205 246.853 156.61 243.039 168.843 240.626Z" class="" fill="#4a90e2" fill-opacity="1"></path><path d="M122.905 263.594L209.53 347.124C201.605 351.834 192.045 355.497 180.875 357.937L109.845 290.687L108.375 292.25C110.85 280.876 115.777 271.317 122.905 263.594Z" class="" fill="#d0021b" fill-opacity="1"></path><path d="M106.593 313.374L157.03 361.124C144.784 361.86 131.164 361.476 116.22 359.844C110.123 342.441 107.02 326.967 106.594 313.374Z" class="" fill="#f8e71c" fill-opacity="1"></path><path d="M102.813 378.5C110.06 393.034 115.153 406.558 118.249 418.938L63.874 382.094C75.336 379.821 88.324 378.564 102.812 378.5Z" class="" fill="#7ed321" fill-opacity="0"></path><path d="M19.063 470.063L19.061 492.093L20.281 492.843L55.718 492.843L19.061 470.063Z" class="" fill="#d0021b" fill-opacity="0"></path></g></g></svg>