<svg xmlns="http://www.w3.org/2000/svg" viewBox="0 0 512 512" style="height: 512px; width: 512px;"><defs><linearGradient x1="0" x2="0" y1="0" y2="1" id="gradient-2"><stop offset="0%" stop-color="#7ed321" stop-opacity="1"></stop><stop offset="100%" stop-color="#8b572a" stop-opacity="1"></stop></linearGradient><linearGradient x1="0" x2="0" y1="0" y2="1" id="gradient-3"><stop offset="0%" stop-color="#7ed321" stop-opacity="1"></stop><stop offset="100%" stop-color="#8b572a" stop-opacity="1"></stop></linearGradient></defs><path d="M0 0h512v512H0z" fill="#8b572a" fill-opacity="0"></path><g class="" transform="translate(0,2)" style="touch-action: none;"><g transform="translate(25.6, 25.6) scale(0.9, 0.9) rotate(0, 256, 256)"><path d="M439.313 23.094C425.24 22.97 404.813 32.247 379.063 51.969C378.523 51.469 377.943 50.983 377.343 50.529C367.383 43.002 353.216 44.975 345.687 54.936C338.279 64.739 340.074 78.636 349.625 86.249C344.951 100.586 348.555 114.899 356.719 126.374C356.384 133.076 354.009 138.719 346.749 144.374C337.574 151.522 327.812 160.632 318.061 171.344C295.775 159.984 278.691 142.142 264.061 121.749L266.155 120.874C302.905 105.334 288.709 80.61 255.125 94.811C248.392 78.895 240.458 72.118 234.375 71.968C225.482 71.748 220.545 85.685 229.061 105.842C187.891 123.25 201.041 148.417 240.093 131.904L241.905 131.124C256.17 159.026 275.093 179.112 299.405 193.934C282.265 216.824 266.533 244.224 255.935 274.029C241.173 262.479 226.855 257.324 212.468 257.405C192.808 257.515 173.023 267.38 151.904 283.875L151.31 282.937C128.64 247.109 103.503 260.287 127.404 298.062C96.262 317.765 106.611 344.714 142.56 321.968C162.056 352.786 187.803 340.565 166.467 306.842L164.497 303.717C200.977 287.449 227.864 292.83 243.81 324.467C242.637 334.009 242.127 343.687 242.34 353.403C210.76 408.393 158.814 461.873 102.435 428.123C56.43 400.583 31.08 290.24 86.03 264.812C-2.83 278.812 13.91 422.967 74.687 466.905C143.577 516.707 251.787 476.695 301.157 399.405C310.387 390.157 319.199 380.042 327.5 369.28C355.69 379.07 375.033 403.81 382.28 435.844L380.438 435.719C340.605 433.206 342.264 461.669 378.656 463.969C375.98 506.415 404.586 502.529 406.906 465.749C451.516 468.567 451.006 440.169 408.686 437.499L405.25 437.279C407.57 389.657 384.156 357.295 352.656 331.687C363.606 312.639 372.73 292.385 379.406 271.655C394.21 288.97 416.006 291.857 445.25 282.78C460.86 321.204 487.49 312.795 471.22 271.53C505.5 258.008 500.42 229.583 460.844 245.188C447.47 211.26 419.891 218.468 434.531 255.594L436.501 260.564C409.099 267.231 397.689 255.081 388.563 234.437C392.14 213.147 392.821 191.774 389.938 171.062C388.561 161.176 394.968 155.794 401.813 150.625C409.875 150.555 417.903 148.298 425.126 143.281C435.026 150.048 448.602 147.917 455.906 138.251C463.436 128.291 461.462 114.123 451.501 106.595C450.828 106.085 450.116 105.611 449.407 105.189C469.22 52.58 464.05 23.31 439.312 23.094Z" class="selected" fill="url(#gradient-2)"></path></g></g></svg>