<svg xmlns="http://www.w3.org/2000/svg" viewBox="0 0 512 512" style="height: 512px; width: 512px;"><defs><linearGradient x1="0" x2="0" y1="0" y2="1" id="gradient-0"><stop offset="0%" stop-color="#d0021b" stop-opacity="1"></stop><stop offset="100%" stop-color="#f5a623" stop-opacity="1"></stop></linearGradient><radialGradient id="gradient-20"><stop offset="0%" stop-color="#417505" stop-opacity="1"></stop><stop offset="100%" stop-color="#7ed321" stop-opacity="1"></stop></radialGradient><radialGradient id="gradient-21"><stop offset="0%" stop-color="#417505" stop-opacity="1"></stop><stop offset="100%" stop-color="#7ed321" stop-opacity="1"></stop></radialGradient><radialGradient id="gradient-22"><stop offset="0%" stop-color="#417505" stop-opacity="1"></stop><stop offset="100%" stop-color="#7ed321" stop-opacity="1"></stop></radialGradient><radialGradient id="gradient-23"><stop offset="0%" stop-color="#417505" stop-opacity="1"></stop><stop offset="100%" stop-color="#7ed321" stop-opacity="1"></stop></radialGradient><radialGradient id="gradient-24"><stop offset="0%" stop-color="#417505" stop-opacity="1"></stop><stop offset="100%" stop-color="#7ed321" stop-opacity="1"></stop></radialGradient><radialGradient id="gradient-25"><stop offset="0%" stop-color="#417505" stop-opacity="1"></stop><stop offset="100%" stop-color="#7ed321" stop-opacity="1"></stop></radialGradient><radialGradient id="gradient-26"><stop offset="0%" stop-color="#417505" stop-opacity="1"></stop><stop offset="100%" stop-color="#7ed321" stop-opacity="1"></stop></radialGradient></defs><path d="M0 0h512v512H0z" fill="url(#gradient-0)"></path><g class="" transform="translate(0,0)" style="touch-action: none;"><g><path d="M43.66 18.375L121.602 101.655L18.042 49.405L18.042 70.338L128.666 126.152L18.043 107.465L18.043 126.42L122.333 144.035L18.043 156.408L18.043 175.228L126.19 162.4L18.042 204.95L18.042 225.033L131.202 180.508L19.496 256.43L18.043 255.637L18.043 276.854C83.849 311.194 150.553 323.397 197.246 309.008C201.07 321.535 206.443 332.725 213.196 342.098L114.326 493.625L136.641 493.625L223.531 360.453L172.153 493.625L192.185 493.625L239.565 370.825L222.897 493.625L241.757 493.625L258.464 370.525L275.171 493.625L294.028 493.625L277.362 370.825L324.742 493.625L344.775 493.625L293.527 360.8L380.193 493.625L402.506 493.625L303.676 342.155C310.56 332.789 316.15 321.56 320.109 308.947C365.452 322.767 429.485 311.737 493.309 279.657L493.309 255.191L383.425 180.51L493.312 223.746L493.312 203.664L388.442 162.4L493.312 174.842L493.312 156.022L392.299 144.037L493.313 126.975L493.313 108.02L388.473 125.73L493.313 73.066L493.313 52.152L388.42 104.838L469.34 18.375L443.744 18.375L356.674 111.408L367.02 121.092L368.217 124.307C370.55 130.571 371.719 136.181 371.719 142.654C371.719 170.594 349.299 196.55 313.959 210.449C299.266 194.484 293.123 178.255 294.277 170.054C294.907 165.58 296.397 163.284 300.837 161.196C305.279 159.109 313.487 157.96 325.715 160.108L336.693 162.038L336.679 150.891C336.649 130.891 332.296 115.063 321.927 104.209C311.557 93.357 296.411 88.902 278.532 88.419L278.527 88.419C257.029 87.832 230.637 92.717 197.747 100.959L185.737 103.969L191.922 114.689C209.742 145.581 212.272 160.296 210.557 172.524C209.147 182.564 203.81 193.094 199.43 208.847C166.154 194.637 145.12 169.599 145.12 142.653C145.12 137.196 146.87 131.431 149.248 124.769L152.018 117.001C156.328 111.407 155.1 112.557 156.328 111.407L69.258 18.374Z" class="selected" fill="#f8e71c" fill-opacity="1"></path><path d="M274.988 107.065C276.02 107.063 277.031 107.075 278.018 107.102L278.022 107.102C293.172 107.512 302.525 110.958 308.412 117.122C312.978 121.902 316.146 129.282 317.377 140.392C307.907 139.878 299.737 141.064 292.887 144.282C285.687 147.667 280.367 153.644 277.609 160.564C268.836 150.404 265.699 140.907 264.396 129.607C233.922 143.259 225.944 117.193 251.243 109.065C260.12 107.785 268.063 107.087 274.987 107.065Z" class="" fill="#f5a623" fill-opacity="1"></path><path d="M275.4 172.023C275.005 186.753 282.387 202.468 295.17 217.615C267.457 225.911 239.517 226.791 216.29 217.777C220.13 202.627 226.017 192.097 228.56 178.215C241.09 182.13 261.8 181.445 275.4 172.023Z" class="" fill="#f5a623" fill-opacity="1"></path><path d="M144.064 194.363L77.098 281.68C64.412 277.456 51.468 272.27 38.484 266.12Z" class="" fill="#f5a623" fill-opacity="1"></path><path d="M370.564 194.363L477.04 266.73C463.885 272.895 450.785 278.06 437.96 282.238Z" class="" fill="#f5a623" fill-opacity="1"></path><path d="M157.277 207.843L127.352 293.693C117.366 292.3 106.959 290.206 96.266 287.395Z" class="" fill="#f5a623" fill-opacity="1"></path><path d="M357.354 207.848L418.699 287.836C407.899 290.589 397.399 292.609 387.349 293.902Z" class="" fill="#f5a623" fill-opacity="1"></path><path d="M172.174 221.888L170.68 295.064C163.127 295.799 155.032 295.951 146.504 295.527Z" class="" fill="#f5a623" fill-opacity="1"></path><path d="M342.454 221.888L368.124 295.525C359.569 295.835 351.474 295.545 343.941 294.668Z" class="" fill="#f5a623" fill-opacity="1"></path><path d="M190.789 225.664C194.692 227.374 198.716 228.937 202.841 230.342L208.381 232.229L206.933 285.272L199.909 288.214C196.641 289.582 193.139 290.762 189.436 291.761Z" class="" fill="#f5a623" fill-opacity="1"></path><path d="M323.859 226.797L325.171 290.92C322.481 290.114 319.908 289.207 317.461 288.197L307.288 284C304.215 283.507 309.16 232.203 309.16 232.203L314.598 230.333C317.751 229.25 320.836 228.063 323.858 226.797Z" class="" fill="#f5a623" fill-opacity="1"></path></g></g></svg>