<svg height="50px" viewBox="-5 0 511 511.88378" width="50px" xmlns="http://www.w3.org/2000/svg"><path d="m492.265625 204.796875c.5-2.5.101563-5.101563-1.300781-7.300781-1.398438-2.199219-3.597656-3.699219-6.097656-4.199219-6.703126-1.300781-13-2.199219-19-3 17.699218-21.398437 27.597656-62.398437 26.5-88-.101563-.300781-.101563-.601563-.101563-.898437 0-2.601563-1.101563-5-3-6.703126-1.898437-1.699218-4.398437-2.597656-7-2.5-8 .402344-16 .902344-23.898437 1.101563 9.296874-.898437 17.699218-6.300781 22.296874-14.398437 4.601563-8.203126 4.902344-18.101563.800782-26.5-3.300782-7.203126-7.800782-13.703126-13.398438-19.300782l-.101562-.101562c-5.597656-5.5-12.097656-10-19.300782-13.300782-8.398437-4.097656-18.398437-3.898437-26.5.703126-8.199218 4.597656-13.597656 12.898437-14.398437 22.296874.300781-7.898437.699219-16 1.199219-23.898437.101562-2.601563-.800782-5.101563-2.5-7-1.699219-1.898437-4.199219-3-6.800782-3.101563-.296874 0-.597656 0-.898437-.097656-25.5-1.101562-66.601563 8.898438-88 26.5-.800781-6.101562-1.699219-12.5-3-19-.5-2.5-2-4.699218-4.199219-6.101562-2.199218-1.398438-4.800781-1.800782-7.300781-1.300782-30.699219 6.800782-80.699219 23.703126-94.601563 44.5l-.699218-9.199218c-.097656-1.5-.898438-2.800782-2.199219-3.597656-1.300781-.800782-2.800781-.902344-4.199219-.402344-9.902344 3.402344-19.199218 8.402344-27.601562 14.800781-12.699219 10.699219-23.199219 23.601563-31.097656 38.101563-.601563-2.300782-2.203126-4.203126-4.300782-5.203126-2.199218-1-4.699218-.898437-6.800781.203126-4.101563 3.597656-6.601563 8.597656-7 14.097656 0 0-.101563 0-.101563.101562.101563-1 .203126-2 .300782-3 .101562-1.199218-.199219-2.300781-1-3.199218-.800782-.902344-1.898438-1.402344-3.097656-1.402344-.703126 0-1.402344.199218-2 .5-12.101563 6.199218-22.800782 14.601562-31.703126 24.800781-8.898437 10.199219-15.796874 22-20.398437 34.699219-.5-1.097656-.898437-2.199219-1.398437-3.300782-1.203126-3.097656-4.101563-5.296874-7.402344-5.5-3.300782-.296874-6.5 1.402344-8.199219 4.300782-16 28.5-25.5 60.101562-28 92.699218-3.101563 27.402344 5.898437 54.902344 24.699219 75.101563-1.597656-1.5-3.097656-3.199219-4.597656-4.699219-2.902344-3.300781-7.601563-4.101562-11.402344-2.101562-3.800782 2-5.898438 6.402344-4.898438 10.601562 8.199219 31.898438 23.597656 61.5 45 86.597656l-19.199218 19.101563c-5.300782 5.300781-10.101563 11.199219-14.300782 17.398437l-12 18c-5 7.5-7.101562 23.101563-.699218 29.601563l2.699218 2.699219c4.5 4.5 10.898438 6.402344 17.097656 5.199218 6.203126-1.199218 11.402344-5.398437 13.902344-11.199218l.398438-1.097656c6.800781-15.203126 16-29.101563 27.300781-41.300782l11.300781-11.300781c25.699219 22.5 56.398438 38.601563 89.398438 47.101563 4.199218 1 8.601562-1 10.5-4.902344 2-3.800782 1.101562-8.5-2.199219-11.398438-1.5-1.5-3.199219-3-4.699219-4.601562 20.300782 18.800781 47.699219 27.902344 75.199219 24.800781 32.5-2.5 64.101563-12.101563 92.601563-28.101563 2.898437-1.699218 4.5-4.796874 4.296874-8.097656-.296874-3.300781-2.398437-6.199218-5.5-7.402344-1.199218-.5-2.199218-.898437-3.398437-1.398437 25.699219-9.199219 47-27.800781 59.601563-52.101563v-.199218c.699218-1.398438.597656-3-.203126-4.300782-.898437-1.296874-2.398437-2-3.898437-1.796874l-3 .296874s.101563 0 .101563-.097656c5.398437-.402344 10.5-2.902344 14.097656-7 1.101562-2.101562 1.101562-4.601562.199218-6.800781-.898437-2.199219-2.898437-3.800781-5.199218-4.300781 14.601562-7.800782 27.601562-18.398438 38.199218-31.097656 6.300782-8.402344 11.300782-17.601563 14.800782-27.5.5-1.402344.402344-3-.398438-4.300782-.800781-1.300781-2.199218-2.101562-3.699218-2.199218l-9.203126-.703126c20.800782-13.796874 37.703126-63.699218 44.601563-94.398437zm-312.398437 253.199219c-.402344-.300782-.703126-.699219-.902344-1.097656.902344.898437 1.800781 2 2.699218 2.898437zm0 0" fill="#4e342e"/><path d="m408.765625 18.898438c-.5 7.898437-.898437 16-1.199219 23.898437-.800781 17.398437-1.199218 34.898437-1.402344 51.800781v.199219h-.097656v.101563h-.199218c-31.300782.5-62.601563-1.402344-93.601563-5.5v-.902344c1-17.699219.398437-35.5-1.699219-53.199219 21.398438-17.601563 62.5-27.601563 88-26.5.300782.101563.597656.101563.898438.101563 2.601562.097656 5 1.199218 6.800781 3.097656 1.800781 1.902344 2.601563 4.300781 2.5 6.902344zm0 0" fill="#795548"/><path d="m312.367188 88.296875v.898437c-1.300782-.199218-2.601563-.398437-3.800782-.597656-39.300781-5.902344-82.101562-17.199218-106.902344-35.402344 13.902344-20.699218 63.902344-37.597656 94.601563-44.5 2.5-.597656 5.101563-.097656 7.300781 1.300782 2.199219 1.402344 3.699219 3.601562 4.199219 6.101562 1.300781 6.597656 2.199219 13 3 19 2 17.699219 2.601563 35.5 1.601563 53.199219zm0 0" fill="#4e342e"/><path d="m210.664062 170.296875c-37.5-15-64.296874-39.300781-74.796874-77.398437 7.898437-14.5 18.398437-27.5 31.097656-38.101563 8.300781-6.398437 17.601562-11.300781 27.601562-14.800781 1.398438-.597656 3-.398438 4.199219.402344 1.300781.796874 2.101563 2.097656 2.199219 3.597656l.699218 9.199218 8.703126 113.601563c.097656 1.101563.199218 2.398437.296874 3.5zm0 0" fill="#4e342e"/><path d="m330.566406 290.296875c-35.402344-1.601563-70.699218-5.699219-105.5-12.300781-.601562-.097656-1.101562-.300782-1.699218-.300782l-.203126-.199218c-.097656-.5-.199218-1.097656-.296874-1.597656-6.601563-34.902344-10.703126-70.101563-12.300782-105.601563 31.800782 11.300781 65.199219 17.699219 99 18.898437.597656.101563 1.300782.101563 1.898438.203126l.101562.097656c.097656.699218.097656 1.300781.199219 2 1.101563 33.601562 7.5 67 18.800781 98.800781zm0 0" fill="#4e342e"/><path d="m117.964844 99.097656c-.097656.898438-.199219 2-.300782 3-.097656.699219-.199218 1.398438-.296874 2.097656v.402344c-3.902344 42.597656-3.5 91-3.101563 128.898438-26.699219-19.199219-46-47-54.601563-78.800782v-.199218c4.601563-12.699219 11.5-24.5 20.402344-34.699219 8.898438-10.199219 19.699219-18.601563 31.699219-24.800781.601563-.300782 1.300781-.5 2-.5 1.199219 0 2.300781.5 3.101563 1.402344.898437.796874 1.199218 2 1.097656 3.199218zm0 0" fill="#4e342e"/><path d="m311.367188 187.398438c0 .699218 0 1.296874.097656 2-.597656-.101563-1.300782-.101563-1.898438-.203126-33.800781-1.199218-67.199218-7.5-99-18.898437-.101562-1.101563-.199218-2.398437-.300781-3.5l-8.699219-113.601563c24.800782 18.300782 67.699219 29.5 106.898438 35.402344 1.300781.199219 2.601562.398438 3.800781.597656-2 32.703126-2.300781 65.5-.898437 98.203126zm0 0" fill="#795548"/><path d="m132.066406 368.796875c-4.402344-1.300781-8.800781-2.601563-13.101562-4.199219-3.800782-1.300781-7.5-2.601562-11.097656-4-2.601563-1-5.101563-2-7.601563-3.199218-.898437-.402344-2-.800782-2.800781-1.203126-.898438-.296874-1.800782-.699218-2.699219-1.199218-.199219-.097656-.300781-.199219-.398437-.300782-3.300782-1.5-6.5-3.097656-9.601563-4.699218-.199219-.097656-.300781-.199219-.398437-.300782-.601563-.296874-1.203126-.597656-1.800782-.898437-1.800781-.800781-3.5-1.800781-5.101562-2.800781-1.097656-.597656-2.199219-1.199219-3.199219-1.898438-.101563-.101562-.199219-.199218-.300781-.300781-1.5-.898437-3.097656-1.699219-4.398438-2.601563-2.402344-1.5-4.601562-2.898437-6.699218-4.398437l-.902344-.699219c-.5-.300781-1-.699218-1.5-1-1.199219-.800781-2.398438-1.601562-3.5-2.5-1-.699218-2-1.5-3-2.402344l-.097656-.097656c-.902344-.699218-1.902344-1.5-2.703126-2.101562-.898437-.699219-1.5-1.199219-2.199218-1.800782-1.597656-1.398437-3.199219-2.796874-4.699219-4.199218-.898437-.898438-2-1.898438-2.898437-2.800782l-.402344-.398437c-.398438-.398437-.800782-.800781-1.199219-1.199219-18.800781-20.199218-27.800781-47.699218-24.699219-75.101562 2.5-32.597656 12-64.199219 28-92.699219 1.699219-2.898437 4.898438-4.5 8.199219-4.300781 3.300781.300781 6.199219 2.402344 7.398437 5.5.402344 1.101562.902344 2.199218 1.402344 3.300781v.199219c8.597656 31.699218 27.898438 59.5 54.597656 78.800781h.101563c-.699219 45.898437 5.300781 91.398437 17.300781 135.5zm0 0" fill="#795548"/><path d="m458.265625 93.398438c-17.5.796874-34.898437 1.199218-51.898437 1.398437h-.203126v-.199219c.203126-16.902344.601563-34.402344 1.402344-51.800781.800782-9.398437 6.199219-17.699219 14.398438-22.300781 8.199218-4.597656 18.101562-4.898438 26.5-.699219 7.101562 3.300781 13.699218 7.800781 19.300781 13.300781l.101563.097656c5.597656 5.601563 10.097656 12.101563 13.398437 19.300782 4.101563 8.402344 3.800781 18.300781-.800781 26.5-4.5 8.101562-12.898438 13.5-22.199219 14.402344zm0 0" fill="#4e342e"/><path d="m492.265625 102.296875c1.101563 25.601563-8.800781 66.601563-26.5 88-8.398437-1-16.5-1.601563-24.101563-2-8.597656-.300781-16.597656-.199219-24.398437.101563-1.601563.097656-3.199219.097656-4.699219.199218h-.902344c0-.101562 0-.199218-.097656-.300781-4-30.898437-5.902344-62.101563-5.5-93.300781v-.199219h.097656v-.101563h.203126c17-.199218 34.398437-.597656 51.898437-1.398437 1 0 2-.101563 3.101563-.199219 6.898437-.199218 13.796874-.601562 20.796874-.902344 2.601563-.199218 5.101563.703126 7 2.5 1.902344 1.703126 3 4.203126 3 6.703126 0 .296874 0 .597656.101563.898437zm0 0" fill="#4e342e"/><path d="m492.265625 204.796875c-6.898437 30.699219-23.800781 80.601563-44.5 94.5-3.898437-5.398437-7.300781-11.101563-10.199219-17.199219-13.101562-29.699218-21.800781-61.199218-25.800781-93.402344v-.199218h.898437c1.5-.097656 3.101563-.097656 4.703126-.199219 7.796874-.300781 15.796874-.300781 24.398437-.101563 7.601563.300782 15.601563.902344 24.101563 2 6.097656.800782 12.398437 1.703126 19 3 2.5.5 4.699218 2.101563 6.097656 4.203126 1.402344 2.097656 1.800781 4.898437 1.300781 7.398437zm0 0" fill="#4e342e"/><path d="m396.164062 384.597656c-.597656 0-1-.402344-1-1 0-.5.402344-1 .902344-1 .097656 0 .300782-.101562.5-.101562.597656 0 1 .402344 1 1 0 .5-.402344 1-.902344 1-.097656 0-.296874.101562-.5.101562zm0 0"/><path d="m413.066406 376.097656c-3.601562 4.097656-8.601562 6.597656-14.101562 7 0 0 0 .097656-.097656.097656l-2.300782.300782c-42.699218 3.902344-91.101562 3.5-129 3.101562l-.101562-.101562c-21.398438-28.699219-34.5-64.898438-43.699219-107.097656-.101563-.601563-.199219-1.203126-.300781-1.703126.601562.101563 1.101562.203126 1.699218.300782 34.800782 6.601562 70.101563 10.699218 105.5 12.300781 15 37.5 39.300782 64.300781 77.402344 74.800781 2.300782.597656 4.199219 2.199219 5.199219 4.300782 1 2.097656.898437 4.597656-.199219 6.699218zm0 0" fill="#795548"/><path d="m411.664062 188.597656c-32.699218 2-65.398437 2.398438-98.097656.898438-.699218 0-1.300781 0-2-.097656l-.101562-.101563c-.097656-.699219-.097656-1.300781-.097656-2-1.402344-32.699219-1.101563-65.5.898437-98.101563 31 4.101563 62.300781 6 93.601563 5.5h.199218v.300782c-.300781 31.300781 1.5 62.601562 5.597656 93.601562zm0 0" fill="#4e342e"/><path d="m460.964844 306.496094c-3.5 9.902344-8.5 19.101562-14.800782 27.5-10.699218 12.699218-23.597656 23.199218-38.199218 31.101562-5.5-1.5-10.898438-3.402344-16.097656-5.800781-28.300782-12.5-47.601563-36-60.402344-66.898437-.300782-.703126-.597656-1.402344-.898438-2 1.097656.097656 2.398438.199218 3.597656.296874l86.5 6.703126 3.800782.296874 23.101562 1.800782 9.199219.699218c1.5.101563 2.898437 1 3.699219 2.203126.902344 1.097656 1.101562 2.699218.5 4.097656zm0 0" fill="#4e342e"/><path d="m405.964844 388.996094c-12.5 24.402344-33.800782 43-59.597656 52.199218h-.101563c-4.800781-1.296874-9.601563-2.898437-14.300781-4.796874-25.800782-10-48.199219-27.300782-64.300782-49.703126l-.199218-.199218c5.902344.101562 12.101562.199218 18.5.199218 1.699218.101563 3.5.101563 5.402344 0 28 .300782 59.199218 0 88.796874-2 5.5-.296874 10.902344-.796874 16.300782-1.296874l2.300781-.300782 3-.300781c1.5-.199219 3 .5 3.898437 1.800781.902344 1.398438 1 3.097656.300782 4.398438zm0 0" fill="#4e342e"/><g fill="#795548"><path d="m466.664062 102.296875c1.101563 24.800781-8.199218 64.199219-25 86-.398437.699219-.898437 1.300781-1.5 2-8-1-15.699218-1.601563-23-1.898437-2-.101563-3.796874-.203126-5.699218-.203126-4-30.898437-5.898438-62.097656-5.5-93.296874v-.203126h.101562v-.097656h.199219c17-.199218 34.398437-.601562 51.898437-1.402344 1 0 2-.097656 3.101563-.199218 3.199219 1.5 5.300781 4.699218 5.300781 8.300781.097656.398437.097656.699219.097656 1zm0 0"/><path d="m466.664062 204.796875c-5.796874 27.101563-15.699218 53.199219-29.296874 77.398437-13.101563-29.699218-21.800782-61.199218-25.800782-93.398437v-.199219c0-.101562 0-.199218-.101562-.300781 1.902344 0 3.800781.101563 5.699218.199219 7.300782.300781 14.902344.902344 23 1.902344 6.101563.796874 12.402344 1.699218 19 3 2.5.5 4.703126 2.097656 6.101563 4.199218 1.398437 2.097656 2 4.699219 1.398437 7.199219zm0 0"/><path d="m420.765625 297.296875 3.800781.300781c-.800781.699219-1.601562 1.300782-2.402344 1.800782-.5-.703126-1-1.402344-1.398437-2.101563zm0 0"/><path d="m435.464844 306.496094c-3.5 9.902344-8.5 19.101562-14.800782 27.5-8.097656 10-17.898437 18.5-28.796874 25.300781-28.300782-12.5-47.601563-36-60.402344-66.898437l90.699218 7 9.203126.699218c1.5.097656 2.898437 1 3.699218 2.199219.800782 1.199219.898438 2.800781.398438 4.199219zm0 0"/><path d="m380.464844 388.996094c-10.597656 20.699218-27.597656 37.300781-48.398438 47.402344-25.800781-10-48.199218-27.300782-64.300781-49.703126 6 .101563 12 .101563 18.300781 0 1.699219.101563 3.5.101563 5.398438 0 26.199218-.097656 53.902344-.898437 79.601562-3.199218l2.300782-.300782 3-.296874c1.5-.203126 3 .5 3.898437 1.796874.898437 1.300782.898437 3 .199219 4.300782zm0 0"/><path d="m447.664062 299.296875-113.5-8.699219c-1.199218-.199218-2.5-.300781-3.597656-.300781-11.300781-31.800781-17.699218-65.199219-18.902344-98.898437-.097656-.703126-.097656-1.300782-.199218-2 .699218.097656 1.300781.097656 2 .097656 32.699218 1.402344 65.5 1.101562 98.101562-.898438v.199219c6 40.101563 17.300782 84.898437 36.097656 110.5zm0 0"/><path d="m223.265625 277.496094c-.5-.097656-1-.300782-1.601563-.300782-42.199218-9.199218-78.5-22.296874-107.199218-43.699218h-.097656c-.402344-37.898438-.902344-86.300782 3.097656-128.898438v-.402344c.101562-.796874.199218-1.5.300781-2.097656 0 0 0-.101562.101563-.101562.398437-5.398438 2.898437-10.5 7-14.097656 2.097656-1.101563 4.597656-1.101563 6.796874-.203126 2.203126 1 3.800782 2.902344 4.300782 5.203126 10.402344 38.097656 37.300781 62.398437 74.800781 77.398437 1.601563 35.398437 5.699219 70.699219 12.300781 105.601563 0 .5.097656 1.097656.199219 1.597656zm0 0"/></g><path d="m267.464844 386.496094c-45.699219.300781-91.199219-5.597656-135.300782-17.597656l-.097656-.101563c-12-44.101563-17.902344-89.601563-17.601562-135.300781 28.699218 21.402344 64.902344 34.5 107.199218 43.699218.601563.101563 1.101563.300782 1.601563.300782l.199219.199218c.199218.601563.300781 1.101563.300781 1.703126 9.199219 42.097656 22.300781 78.398437 43.699219 107.097656zm0 0" fill="#4e342e"/><path d="m350.964844 458.195312c-28.398438 16-60 25.601563-92.597656 28.101563-27.5 3-54.902344-6-75.203126-24.800781-.398437-.300782-.796874-.699219-1.199218-1.097656l-.398438-.5c-.902344-.902344-1.800781-2-2.699218-2.902344-.203126-.199219-.402344-.398438-.601563-.699219-1.300781-1.300781-2.5-2.601563-3.601563-4-.199218-.199219-.296874-.300781-.398437-.5-1.300781-1.5-2.5-2.898437-3.601563-4.398437-.898437-1-1.699218-2-2.398437-3.101563-1.300781-1.601563-2.5-3.199219-3.601563-4.898437-1.796874-2.5-3.398437-4.902344-5-7.703126-1-1.398437-1.898437-2.898437-2.699218-4.398437-.097656-.199219-.199219-.300781-.300782-.398437-.699218-1-1.296874-2-1.796874-3.101563-.902344-1.601563-1.902344-3.199219-2.703126-4.800781-.097656-.097656-.097656-.300782-.199218-.300782-.300782-.5-.597656-1.097656-.898438-1.597656-1.5-2.699218-2.800781-5.5-4.101562-8.300781-.398438-.800781-.800782-1.601563-1.097656-2.5-.203126-.300781-.300782-.800781-.5-1.101563-.703126-1.5-1.300782-2.796874-2-4.398437-.902344-2-1.703126-4-2.5-6.101563-1.601563-3.898437-3.101563-7.898437-4.5-12.097656-.203126-.5-.300782-1-.402344-1.5-1.5-4-2.699219-8-3.898438-12.199218 44.097656 12 89.597656 17.898437 135.300782 17.597656l.097656.101562c19.199218 26.800782 47 46.097656 78.800781 54.699219h.101563c1.199218.398437 2.199218.898437 3.398437 1.398437 3.101563 1.203126 5.199219 4.101563 5.5 7.402344.300781 3.199219-1.398437 6.398438-4.300781 8.097656zm0 0" fill="#795548"/><path d="m179.566406 482.296875c-37.902344-9.898437-72.5-29.5-100.402344-56.898437l-1.796874-1.902344c-28.300782-28.199219-48.601563-63.398438-58.703126-102.097656-1-4.203126 1-8.601563 4.902344-10.601563 3.898438-2 8.597656-1.101563 11.398438 2.101563 1.5 1.5 3 3.199218 4.601562 4.699218.398438.398438.800782.800782 1.199219 1.199219l.398437.398437c.902344.902344 2 1.902344 2.902344 2.800782 1.5 1.402344 3.097656 2.800781 4.699219 4.199218.800781.601563 1.5 1.203126 2.199219 1.800782.800781.601562 1.800781 1.5 2.699218 2.101562l.101563.097656c.898437.902344 1.898437 1.703126 3 2.402344 1.101563.898438 2.300781 1.699219 3.5 2.5.398437.300782.898437.699219 1.5 1l.898437.699219c2 1.5 4.300782 3 6.703126 4.398437 1.398437.902344 2.898437 1.800782 4.398437 2.601563.101563.101563.199219.199219.300781.300781 1 .800782 2.097656 1.398438 3.199219 1.898438 1.601563 1 3.398437 2 5.101563 2.800781.597656.300781 1.199218.699219 1.796874.898437.203126.101563.300782.203126.402344.300782 3.097656 1.699218 6.300782 3.199218 9.597656 4.699218.203126.101563.300782.203126.402344.300782.898438.402344 1.800782.800781 2.699219 1.199218.898437.402344 1.898437.800782 2.800781 1.203126 2.5 1.097656 5 2.097656 7.597656 3.199218 3.601563 1.5 7.300782 2.800782 11.101563 4 4.300781 1.5 8.601563 2.898438 13.101563 4.199219l.097656.101563c1.199218 4.199218 2.5 8.199218 3.902344 12.199218.097656.5.199218 1 .398437 1.5 1.5 4.199219 2.898437 8.199219 4.5 12.097656.800781 2 1.601563 4.101563 2.5 6.101563.699219 1.5 1.300781 2.898437 2 4.398437.199219.300782.300781.800782.5 1.101563.300781.800781.699219 1.699219 1.101563 2.5 1.296874 2.800781 2.597656 5.5 4.097656 8.300781.300781.5.601562 1.097656.902344 1.597656.097656.101563.097656.300782.199218.300782.898438 1.601562 1.800782 3.199218 2.699219 4.800781.5 1.101563 1.101563 2.101563 1.800781 3.101563.097656.199218.199219.296874.300782.398437.796874 1.5 1.699218 3 2.699218 4.398437 1.597656 2.703126 3.199219 5.203126 5 7.703126 1.097656 1.597656 2.300782 3.199218 3.597656 4.898437.703126 1.101563 1.5 2.101563 2.402344 3.101563 1.097656 1.5 2.300782 3 3.597656 4.398437.203126.199219.300782.300781.402344.5 1.097656 1.398437 2.300782 2.699219 3.597656 4 .203126.199219.402344.5.601563.699219.300781.402344.601563.800781.898437 1.101562l1.800782 1.800782.402344.5c.398437.398437.796874.796874 1.199218 1.097656 1.5 1.601562 3.199219 3.199218 4.699219 4.601562 3.199219 2.898438 4.101563 7.597656 2.199219 11.398438-1.800782 3.800781-6.199219 5.800781-10.398438 4.800781zm0 0" fill="#4e342e"/><path d="m486.367188 184.898438c-2.101563-.402344-4.101563-.703126-6.101563-1 13.601563-25.203126 20.601563-53.300782 20.398437-81.902344 0-.300782 0-.597656-.097656-.898438 0 .199219 0 .199219 0 .097656-.199218-4.898437-2.300781-9.5-6-12.796874-2.199218-1.902344-4.699218-3.300782-7.5-4 .199219-.402344.5-.703126.699219-1 6-10.601563 6.5-23.5 1.101563-34.5-3.703126-8-8.800782-15.300782-15-21.601563l-.101563-.101563-.101563-.097656c-6.296874-6.199218-13.597656-11.199218-21.5-15-11-5.402344-24-5-34.597656 1.097656-.402344.203126-.699218.5-1 .703126-.699218-2.800782-2-5.402344-3.902344-7.601563-3.296874-3.601563-7.898437-5.800781-12.796874-6-.300782 0-.601563-.101563-.902344-.101563-28.5-.19921825-56.699219 6.800782-81.800782 20.402344-.296874-2-.597656-4-1-6.101562-.898437-4.800782-3.699218-8.898438-7.796874-11.5-4.101563-2.699219-9.101563-3.597656-13.902344-2.597656-6.898438 1.597656-60 14-87.800782 35.796874-.898437-1.199218-2-2.296874-3.296874-3.097656-3.601563-2.199218-8-2.601562-11.902344-1.101562l-1 .402344c-10.300782 3.699218-20 8.898437-28.699219 15.597656-10.898437 8.902344-20.199219 19.601562-27.5 31.601562-4.398437-1.5-9.101563-1.300781-13.300781.699219-2.5 1.398437-4.597656 3.300781-6.097656 5.699219-2.402344-.199219-4.703126.300781-6.800782 1.402344-21.902344 11.296874-39.601562 29.199218-50.601562 51.296874-1.699219-.796874-3.5-1.296874-5.300782-1.5-6.597656-.597656-13.097656 2.601563-16.5 8.300782-16.597656 29.601562-26.5 62.402344-29.199218 96.199218-2.199219 21.5 2.199218 43.101563 12.699218 61.902344-7.097656 3.800782-10.597656 12-8.597656 19.800782 7.898438 31.199218 22.5 60.296874 42.800782 85.199218l-21 21c-5.703126 5.699219-10.902344 12-15.402344 18.699219l-11.898438 18c-7.300781 10.898437-5.800781 25.5 3.398438 34.800781l2.699218 2.699219c6.5 6.5 15.703126 9.300781 24.703126 7.601563 9-1.703126 16.5-7.800782 20.097656-16.203126l.5-1c5.300781-12.398437 12.902344-23.597656 22.402344-33.097656l13.398437-13.402344c25 20.300782 54.101563 34.902344 85.300781 42.902344 1.5.398438 2.898438.597656 4.398438.597656 6.402344 0 12.199218-3.398437 15.300781-9 15.601563 8.601563 33.199219 13.203126 51.101563 13.101563 3.597656 0 7.296874-.199219 10.898437-.601563 33.800781-2.699218 66.601563-12.597656 96.199219-29.199218 5.699218-3.5 9-9.898438 8.300781-16.597656-.199219-1.800782-.699219-3.601563-1.5-5.300782 22-11 40-28.800781 51.300781-50.699218 1.097656-2.101563 1.5-4.402344 1.398438-6.800782 2.402344-1.5 4.402344-3.601562 5.699218-6.101562 1.902344-4.199219 2.203126-8.898438.703126-13.300782 12-7.296874 22.699218-16.597656 31.597656-27.5 6.699218-8.699218 11.902344-18.398437 15.601562-28.699218l.398438-1c1.5-3.898438 1.101562-8.300782-1.097656-11.898438-.800782-1.300781-1.800782-2.402344-3.101563-3.300781 21.800781-27.800781 34.300781-80.898437 35.800781-87.800781 1.097656-4.800782.097656-9.800782-2.601562-13.898438-2.597656-4-6.800782-6.800781-11.597656-7.699218zm-24.601563-3.601563c-14.101563-1.5-28.398437-2-42.601563-1.5-.597656-4.5-1.097656-9-1.597656-13.699219-.101562-.5-.101562-1.101562-.101562-1.601562-.5-5.597656-1-11.300782-1.398438-17.199219 0-.5-.101562-.898437-.101562-1.398437-.398438-6.101563-.597656-12.300782-.898438-18.800782 0-1-.101562-1.902344-.101562-2.902344-.199219-6.296874-.300782-12.898437-.300782-19.597656v-1.402344c1.5 0 3-.097656 4.5-.097656 12.5-.199218 25.101563-.601562 38-1.101562h1.402344c8-.300782 16-.699219 24.699219-.898438.199219.097656.300781.300782.300781.5 0 .597656 0 1.097656.097656 1.699219.203126 27.5-7.398437 54.5-21.898437 78zm-114.601563 154.300781c1.703126 2 3.402344 3.800782 5.203126 5.597656 1.5 1.601563 3 3.300782 4.597656 4.800782 1.601562 1.5 3.402344 2.902344 5.101562 4.300781 1.898438 1.601563 3.597656 3.199219 5.597656 4.699219l.101563.101562c5.699219 4.097656 11.800781 7.699219 18.199219 10.699219 1.800781.898437 3.601562 1.800781 5.402344 2.601563 1.898437.796874 3.898437 1.398437 5.898437 2.097656 2.300781.800781 4.398437 1.699218 6.800781 2.402344-2.101562.898437-4.300781 1.597656-6.601562 1.898437l-.300782.101563-.5.097656c-41.5 3.199218-83.097656 4.199218-124.699218 3.199218l-.199219-.199218c-1.300781-1.800782-2.601563-3.597656-3.800781-5.5-.800782-1.199219-1.597656-2.597656-2.300782-3.800782-1.199218-1.898437-2.398437-3.796874-3.5-5.796874-.699218-1.300782-1.398437-2.703126-2.097656-4-1.101562-2.101563-2.300781-4.203126-3.402344-6.402344-.796874-1.597656-1.5-3.199219-2.199218-4.800782-1-2.097656-1.898438-4.097656-2.898438-6.296874-.902344-2.203126-1.699218-4.402344-2.601562-6.601563-.699219-1.800781-1.398438-3.5-2.097656-5.300781-1.203126-3.097656-2.203126-6.398438-3.300782-9.597656-.300781-1-.699218-2-1.101562-3.101563-1.097656-3.601563-2.199219-7.300781-3.300782-11.101563-.199218-.898437-.5-1.699218-.796874-2.597656-1.300782-4.699218-2.601563-9.5-3.800782-14.5 7.800782 1.398438 15.597656 2.597656 23.5 3.699219 2.5.300781 5 .601563 7.5.898437 5.398438.703126 10.699219 1.300782 16.097656 1.902344 3 .300782 6 .5 8.902344.800782 4.898438.5 9.800782.898437 14.597656 1.296874 3.203126.203126 6.402344.5 9.601563.703126 3.199219.199218 6.699219.5 10 .699218.898437 1.898438 1.800781 3.699219 2.699219 5.5 1 2.199219 2 4.398438 3.101562 6.398438 1.398438 2.601562 2.898438 5 4.300782 7.5 1.199218 1.902344 2.296874 3.902344 3.5 5.800781 1.5 2.300781 3.199218 4.5 4.796874 6.601563 1.402344 1.699218 2.703126 3.5 4 5.199218zm-103.296874 41.699219c-3.902344-.199219-7.800782-.300781-11.601563-.601563-2.199219-.097656-4.398437-.296874-6.699219-.5-3.402344-.296874-6.800781-.5-10.199218-.898437-2.300782-.199219-4.601563-.398437-6.800782-.699219-3.199218-.300781-6.402344-.699218-9.5-1.101562-2.199218-.300782-4.5-.597656-6.699218-.898438-3.101563-.402344-6.101563-.902344-9.101563-1.300781-2.101563-.300781-4.300781-.699219-6.398437-1-3-.5-6-1.101563-9-1.699219-1.902344-.402344-3.902344-.699218-5.800782-1.101562-3.199218-.699219-6.300781-1.398438-9.402344-2.097656-1.597656-.402344-3.097656-.703126-4.699218-1.101563-3.097656-.800781-6-1.601563-9-2.398437-.898438-3-1.699219-6-2.398438-9-.402344-1.5-.699218-3.101563-1.101562-4.703126-.699219-3.097656-1.5-6.199218-2.097656-9.398437-.402344-1.898437-.800782-3.800781-1.101563-5.800781-.601563-3-1.101563-6-1.699219-9-.402344-2.097656-.699218-4.300782-1-6.398438-.5-3-.902344-6-1.300781-9.101562-.300781-2.199219-.601563-4.398438-.898437-6.699219-.402344-3.101563-.703126-6.300781-1.101563-9.5-.199219-2.300781-.5-4.5-.699219-6.800781-.300781-3.398438-.601562-6.800782-.902344-10.199219-.199218-2.199219-.296874-4.398437-.5-6.601563-.199218-3.796874-.398437-7.699218-.597656-11.597656-.101562-1.902344-.199218-3.800781-.300781-5.800781 0-.5 0-.898437 0-1.398437 1.800781 1.097656 3.601563 2.097656 5.5 3.199218 1.101563.597656 2.101563 1.199219 3.199219 1.800782 3.699218 2 7.5 4 11.402344 5.898437l.597656.300781c3.699218 1.800782 7.601562 3.5 11.601562 5.097656 1.300782.601563 2.699219 1.101563 4.097656 1.601563 2.902344 1.199219 5.902344 2.300781 9 3.398437 1.601563.601563 3.300782 1.203126 5 1.703126 3 1 6 2 9.203126 3 1.796874.597656 3.5 1.097656 5.398437 1.597656 3.398437 1 6.800781 1.902344 10.398437 2.902344 1.601563.398437 3.203126.898437 4.902344 1.296874 4.097656 1 8.398438 2 12.699219 3 1 4.300782 2 8.5 3 12.703126.398437 1.699218.898437 3.296874 1.300781 5 .898438 3.5 1.898438 6.898437 2.898438 10.296874.5 1.800782 1.101562 3.703126 1.699218 5.5.902344 3 1.902344 6 2.902344 9 .597656 1.800782 1.199219 3.5 1.800782 5.203126 1.097656 3 2.199218 5.898437 3.296874 8.699218.601563 1.5 1.101563 3 1.703126 4.398438 1.597656 3.699218 3.199218 7.402344 4.796874 10.902344.203126.398437.402344.898437.601563 1.296874 1.898437 3.902344 3.800781 7.703126 5.800781 11.300782.597656 1.199218 1.300782 2.300781 2 3.402344 1 1.796874 2 3.597656 3.097656 5.296874h-1.398437c-2-.199218-4-.398437-5.898437-.398437zm-117.800782-273.5c0-.101563 0-.199219.097656-.300781.402344-2.300782 1-4.5 2-6.597656.800782 2.699218 1.800782 5.097656 2.703126 7.699218.597656 1.597656 1 3.199219 1.699218 4.800782 1.5 3.597656 3.199219 7.097656 5.097656 10.5.300782.597656.601563 1.296874 1 2 2.300782 4 4.800782 7.898437 7.5 11.597656.902344 1.101562 1.800782 2.199218 2.703126 3.300781 2 2.5 4 5 6.296874 7.398437 1.300782 1.300782 2.703126 2.601563 4 3.800782 2.101563 2 4.101563 4 6.402344 5.902344 1.597656 1.296874 3.300782 2.5 4.898438 3.796874 2.300781 1.703126 4.5 3.402344 6.902344 5 1.796874 1.203126 3.796874 2.300782 5.699218 3.5 2.398438 1.5 4.898438 3 7.5 4.300782 2.097656 1.101562 4.300782 2.101562 6.5 3.199218 1.898438.902344 3.597656 1.800782 5.5 2.703126.199219 3.199218.5 6.5.699219 9.699218.199219 3.199219.5 6.597656.699219 9.898438.402344 4.699218.800781 9.402344 1.199218 14.101562.300782 3.097656.5 6.199219.902344 9.398438.5 5.199218 1.199219 10.402344 1.800782 15.601562.296874 2.699219.597656 5.300782 1 8 1.097656 7.898438 2.296874 15.699219 3.699218 23.5-5-1.199218-9.800781-2.5-14.5-3.800781-.800781-.199219-1.5-.5-2.300781-.699219-3.800781-1.101562-7.699219-2.199218-11.300781-3.402344-1.300782-.398437-2.5-.898437-3.800782-1.296874-3-1-6.097656-2-8.898437-3.101563-1.398437-.5-2.800781-1.101563-4.199219-1.699219-2.601562-1-5.199218-2-7.699218-3.101562-1.5-.597656-2.902344-1.300782-4.402344-2-2.199219-1-4.5-2-6.699219-3.097656-1.5-.703126-2.898437-1.5-4.300781-2.300782-2-1-4.097656-2.101562-6-3.199218-1.398438-.800782-2.597656-1.601563-4-2.402344-1.898438-1.097656-3.800782-2.199219-5.597656-3.398438-1.203126-.800781-2.300782-1.601562-3.5-2.402344l-2.300782-1.597656c-1-41.601562 0-83.199218 3.199219-124.699218zm271.5-.5v5.101563c.097656 4.796874.097656 9.398437.300782 14 .597656 21.296874 1.898437 40.5 4.097656 58-27.5 1.199218-55.5 2.097656-82.300782.796874-1.296874-26.5-.398437-54.597656.800782-82.296874 25.601562 3 51.402344 4.5 77.101562 4.398437zm-166.902344 167c-5.398437-28.898437-8.898437-58.199219-10.597656-87.601563 27.199219 8.101563 55.300782 13 83.597656 14.5 1.5 28.402344 6.402344 56.402344 14.5 83.601563-29.398437-1.601563-58.597656-5.101563-87.5-10.5zm72.800782-173.800781c-1.199219 28.101562-2.199219 56.601562-.898438 83.601562-28.601562-1.5-56.800781-6.800781-84-15.902344l-7.300781-94.898437c29.300781 13.601563 60.300781 22.800781 92.199219 27.199219zm33.300781 185.800781c-9.101563-27.101563-14.398437-55.300781-15.898437-83.898437 8.699218.398437 17.5.597656 26.398437.597656 19 0 38.199219-.800782 57.199219-1.597656 4.402344 31.898437 13.601562 62.898437 27.199218 92.097656zm89.300781-254.398437c5.800782-3.300782 12.800782-3.5 18.800782-.5 6.199218 2.898437 12 6.796874 16.898437 11.699218h.101563l.097656.097656c4.902344 4.902344 8.800781 10.703126 11.699218 17 3 5.902344 2.703126 13-.597656 18.703126-3.101562 5.597656-8.800781 9.398437-15.199218 10-14.402344.699218-28.703126 1-42.902344 1.199218.199218-14.101562.601562-28.300781 1.199218-42.699218.5-6.5 4.203126-12.300782 9.902344-15.5zm-28.300781-10.703126c.5.101563.898437.101563 1.398437.101563.402344 0 .703126.199219 1 1-.5 8.101563-.898437 16.101563-1.097656 24-.601562 13.300781-1 26.699219-1.199218 40 0 1.300781-.101563 2.699219-.101563 4h-.300781c-25.5 0-51-1.5-76.300782-4.5.5-14.199219 0-28.398437-1.5-42.5 23.5-14.601563 50.5-22.199219 78.101563-22.101563zm-99.699219-.097656c.398438-.101562.699219.097656 1.199219.699219 3.898437 20.300781 5.5 41 4.898437 61.601563-31.296874-4-61.597656-13.402344-89.597656-27.800782 16.097656-14.101562 52.097656-27.5 83.5-34.5zm-125.902344 44.300782c6.300782-4.800782 13.203126-8.800782 20.601563-11.601563l8.101563 106.800781-.300782-.101562c-.800781-.398438-1.5-.898438-2.300781-1.300782-3.101563-1.597656-6.199219-3.296874-9-5.097656-1.300781-.800781-2.398437-1.601562-3.699219-2.5-2.199218-1.5-4.402344-3-6.5-4.699218-1.199218-1-2.402344-2-3.601562-3-1.898438-1.601563-3.699219-3.203126-5.398438-4.902344-1.101562-1.097656-2.199218-2.199219-3.199218-3.300782-1.703126-1.796874-3.203126-3.699218-4.703126-5.5-.898437-1.097656-1.796874-2.199218-2.597656-3.296874-1.800781-2.402344-3.402344-4.902344-4.902344-7.5-.398437-.703126-.898437-1.300782-1.296874-2-1.800782-3.300782-3.5-6.703126-4.902344-10.101563-.5-1.199219-.898438-2.398437-1.300782-3.601563-.699218-1.898437-1.398437-3.796874-2-5.796874 7-12.300782 16.101563-23.402344 27-32.5zm-63.5 45.296874c-3 34.5-3.296874 72-3 108.5-17.597656-16.296874-30.398437-37.097656-37-60.199218 7.800782-20 21.800782-37 40-48.300782zm-85.398437 136.703126c2.398437-31.300782 11.699219-61.703126 27.199219-89l1 2.597656c0 .101562.101562.199218.101562.300781 8.800782 32 27.898438 60.300781 54.398438 80.398437.101562 4.902344.199218 9.800782.402344 14.5.097656 1.800782.199218 3.601563.199218 5.402344.199219 4.199219.398438 8.300782.597656 12.398438.101563 2.300781.300782 4.5.5 6.699218.300782 3.601563.5 7.101563.902344 10.601563.199219 2.300781.398438 4.601563.699219 6.800781.300781 3.398438.699219 6.699219 1.101563 10 .296874 2.199219.5 4.398438.898437 6.597656.5 3.300782 1 6.601563 1.5 9.902344.300781 2 .601563 4 .898437 6 .601563 3.699219 1.300782 7.199219 2 10.800782.300782 1.5.5 3 .902344 4.398437 1 4.800781 2 9.601563 3.199219 14.199219l-.199219-.097656c-1.402344-.5-2.800781-1-4.101562-1.601563-3.300782-1.199219-6.597656-2.5-9.699219-3.800781-5.398437-2.199219-10.601563-4.597656-15.601563-7.097656l-2-1c-2-1-3.898437-2.101563-5.898437-3.203126-.101563-.097656-.300781-.199218-.5-.296874-.199219-.101563-.601563-.300782-.800781-.402344-.5-.300782-1-.5-1.398438-.898438-2.101562-1.199218-4.199218-2.601562-6.199218-3.800781-1.800782-1.101563-3.402344-2.199219-5.203126-3.398437-1.398437-.902344-2.699218-1.800782-4-2.800782-.398437-.300781-.898437-.601562-1.199218-.902344-1.5-1.097656-3-2.296874-4.5-3.5-1.097656-.898437-2.199219-1.796874-3.5-2.796874-1.898438-1.601563-3.800782-3.203126-5.597656-4.902344l-.902344-.898438c-18.800782-18.601562-28.199219-44.902344-25.199219-71.199218zm43.398437 205.699218c-11 11-19.898437 24.097656-26 38.398438l-.5 1c-1.398437 3.199218-4.199218 5.5-7.699218 6.199218-3.398438.703126-6.898438-.398437-9.398438-2.898437l-2.699218-2.699219c-3.5-3.5-4.101563-9.101562-1.300782-13.300781l11.898438-18c3.902344-5.800781 8.300781-11.199219 13.199218-16.101563l20-20c2.300782 2.601563 4.601563 5.101563 7 7.703126.101563.097656.101563.097656.203126.097656.097656.101562.097656.101562.097656.199218 2.5 2.402344 5 4.601563 7.5 6.800782zm109.203126 17c2 2.199219 4.199218 4.199219 6.296874 6.199219.5.300781.601563 1 .300782 1.398437-.300782.5-.5.402344-.898438.402344-75.601562-20-134.699218-79.101562-154.699218-154.699218-.101563-.402344-.101563-.601563.398437-.902344.5-.300782 1.199219-.097656 1.5.402344 1.898437 2.097656 3.898437 4.199218 6.300781 6.5l1.597656 1.5c.101563.097656.300782.296874.402344.398437l.597656.5.601563.601563c1.601563 1.5 3.300781 3 5.300781 4.597656.597656.5 1.199219 1 1.800782 1.5.898437.699218 1.699218 1.300781 2.597656 2l.300781.199218c1.101563 1 2.300781 1.902344 3.5 2.703126.898437.699218 1.800781 1.296874 2.699219 2 .902344.699218 1.601562 1.199218 2.402344 1.796874 2.597656 1.902344 5.199218 3.703126 7.5 5 1.5 1.101563 3.097656 2 4.796874 2.902344 1.203126.898438 2.5 1.597656 3.902344 2.300782 1.5.898437 3 1.699218 4.300782 2.398437 4.199218 2.300781 8.5 4.398437 13 6.5.199218.101563.5.300781.796874.398437 1.5.800782 3.101563 1.402344 4.703126 2.101563l1.199218.5c.800782.300781 1.597656.601563 2.398438 1 2.902344 1.199219 5.800781 2.300781 8.800781 3.5 2.101563.800781 4.300781 1.601563 6.398437 2.398437 3.5 1.203126 7.101563 2.402344 10.800782 3.5 1.101562 3.601563 2.300781 7.300782 3.5 10.800782.800781 2.199218 1.601562 4.300781 2.402344 6.5 1.097656 3 2.199218 5.902344 3.398437 8.699218.300781.800782.601563 1.703126 1 2.5l.5 1.203126c.699219 1.597656 1.300781 3.097656 2 4.5.199219.5.5 1 .699219 1.5l.101562.097656c1.699219 3.699218 3.398438 7.101562 5.097656 10.199218.402344.703126.703126 1.5 1.101563 2.203126.699219 1.398437 1.5 2.699218 2 3.597656.800781 1.601562 1.699219 3.199218 2.699219 4.699218.800781 1.402344 1.601562 2.703126 2.5 4 1.699218 2.902344 3.601562 5.601563 5.300781 8v.101563c.398437.601563.800781 1.101563 1.199219 1.601563.902344 1.097656 1.601562 2.199218 2.300781 3.097656.800781 1.300781 1.800781 2.5 2.800781 3.601562l.398438.5c.902344 1.097656 1.699218 2.199219 2.601562 3.300782.398438.5.800782 1 1.199219 1.5 1.398437 1.699218 2.898437 3.398437 4.699219 5.296874l.300781.300782c.199219.199218.300781.402344.5.601562.199219.199219.398437.398438.601563.597656zm81.699218 11.699219c-26.300781 2.898437-52.5-6.398437-71.101562-25.199219l-.898438-.902344c-1.699218-1.796874-3.402344-3.796874-5-5.699218l-1.699218-2.199219c-1.402344-1.699219-2.703126-3.398437-4-5.101563-.703126-1-1.5-2-2.300782-3.097656-1.402344-1.902344-2.699218-3.800781-4-5.800781-.300781-.398437-.5-.898437-.800781-1.199219-1.101563-1.699218-2.199219-3.601562-3.300781-5.402344l-.199219-.199218c-.300781-.5-.601563-.898438-.898437-1.398438-.300782-.5-.601563-1-.902344-1.5-.097656-.199218-.300782-.5-.398438-.800781l-.199218-.300781c-.902344-1.699219-1.902344-3.398438-2.800782-5.097656-1.601562-2.902344-3.101562-6-4.601562-9.203126-1.5-3.199218-2.800782-6.199218-4.097656-9.296874-1.300782-3.203126-2.601563-6.402344-3.800782-9.703126-.5-1.398437-1.101562-2.796874-1.601562-4.296874v-.101563c4.601562 1.101563 9.402344 2.199219 14.199218 3.199219 1.402344.300781 2.902344.5 4.300782.902344 3.601562.699218 7.199218 1.398437 10.902344 2 1.898437.296874 3.796874.597656 5.796874.898437 3.300782.5 6.703126 1 10.101563 1.5 2.101563.300781 4.199219.5 6.300781.898437 3.398438.402344 6.898438.800782 10.300782 1.203126 2.097656.199218 4.296874.398437 6.5.597656 3.699218.300781 7.398437.601562 11.097656.902344 2.101562.199218 4.101562.296874 6.199218.5 4.402344.296874 8.800782.5 13.300782.699218 1.5.097656 3 .199219 4.5.199219 4.902344.199219 9.800781.300781 14.800781.398437 20.101563 26.402344 48.199219 45.5 80.199219 54.300782l3 1.699218c-27.300782 15-57.699219 24.101563-88.898438 26.601563zm88.5-45.5c-23.101562-6.601563-43.902344-19.398437-60.199218-37 36.5.300781 73.898437 0 108.5-3-11.402344 18.199219-28.300782 32.199219-48.300782 40zm93.398438-103.5c-9.097656 10.898437-20.097656 20-32.5 27-2-.601563-4-1.300781-6-2-1.097656-.398437-2.199219-.800781-3.300782-1.199219-3.5-1.5-7-3.101562-10.296874-5-.402344-.199218-.800782-.5-1.203126-.699218-2.898437-1.703126-5.699218-3.5-8.398437-5.5-1-.800782-2-1.601563-3-2.402344-2-1.597656-4-3.199219-5.800781-5-1.097656-1-2.097656-2-3.097656-3.097656-1.703126-1.800782-3.402344-3.601563-5-5.5-1-1.203126-1.902344-2.300782-2.902344-3.5-1.597656-2.101563-3.199219-4.300782-4.699219-6.601563-.800781-1.199219-1.601563-2.300781-2.398437-3.601563-1.800782-2.898437-3.5-6-5.203126-9.199218-.398437-.699219-.796874-1.398438-1.199218-2.097656-.097656-.101563-.097656-.203126-.199219-.300782l106.800781 8.097656c-2.800781 7.300782-6.699218 14.300782-11.601562 20.601563zm9.902344-42.398437c-14.402344-28-23.800782-58.300782-27.800782-89.601563 20.800782-.601563 41.699219 1.101563 62.097656 5.300781.203126.300782.203126.597656.203126.898438-7 31.300781-20.5 67.300781-34.5 83.402344zm0 0"/><path d="m187.765625 322.496094c0 5.246094-4.253906 9.5-9.5 9.5s-9.5-4.253906-9.5-9.5 4.253906-9.5 9.5-9.5 9.5 4.253906 9.5 9.5zm0 0"/><path d="m106.964844 403.296875c0 5.246094-4.253906 9.5-9.5 9.5s-9.5-4.253906-9.5-9.5 4.253906-9.5 9.5-9.5 9.5 4.253906 9.5 9.5zm0 0"/><path d="m282.066406 228.296875c0 5.246094-4.253906 9.5-9.5 9.5s-9.5-4.253906-9.5-9.5 4.253906-9.5 9.5-9.5 9.5 4.253906 9.5 9.5zm0 0"/><path d="m167.566406 194.597656c0 5.246094-4.253906 9.5-9.5 9.5s-9.5-4.253906-9.5-9.5 4.253906-9.5 9.5-9.5 9.5 4.253906 9.5 9.5zm0 0"/><path d="m66.566406 255.195312c0 5.246094-4.253906 9.5-9.5 9.5s-9.5-4.253906-9.5-9.5c0-5.246093 4.253906-9.5 9.5-9.5s9.5 4.253907 9.5 9.5zm0 0"/><path d="m275.367188 127.296875c0 5.246094-4.253907 9.5-9.5 9.5-5.25 0-9.5-4.253906-9.5-9.5s4.25-9.5 9.5-9.5c5.246093 0 9.5 4.253906 9.5 9.5zm0 0"/><path d="m181.066406 86.898438c0 5.246093-4.253906 9.5-9.5 9.5s-9.5-4.253907-9.5-9.5c0-5.25 4.253906-9.5 9.5-9.5s9.5 4.25 9.5 9.5zm0 0"/><path d="m275.367188 46.496094c0 5.246094-4.253907 9.5-9.5 9.5-5.25 0-9.5-4.253906-9.5-9.5s4.25-9.5 9.5-9.5c5.246093 0 9.5 4.253906 9.5 9.5zm0 0"/><path d="m383.066406 127.296875c0 5.246094-4.253906 9.5-9.5 9.5s-9.5-4.253906-9.5-9.5 4.253906-9.5 9.5-9.5 9.5 4.253906 9.5 9.5zm0 0"/><path d="m369.566406 46.496094c0 5.246094-4.253906 9.5-9.5 9.5s-9.5-4.253906-9.5-9.5 4.253906-9.5 9.5-9.5 9.5 4.253906 9.5 9.5zm0 0"/><path d="m315.765625 342.695312c0 5.246094-4.253906 9.5-9.5 9.5s-9.5-4.253906-9.5-9.5c0-5.246093 4.253906-9.5 9.5-9.5s9.5 4.253907 9.5 9.5zm0 0"/><path d="m255.164062 443.695312c0 5.246094-4.253906 9.5-9.5 9.5-5.246093 0-9.5-4.253906-9.5-9.5 0-5.246093 4.253907-9.5 9.5-9.5 5.246094 0 9.5 4.253907 9.5 9.5zm0 0"/><path d="m383.066406 234.996094c0 5.246094-4.253906 9.5-9.5 9.5s-9.5-4.253906-9.5-9.5 4.253906-9.5 9.5-9.5 9.5 4.253906 9.5 9.5zm0 0"/><path d="m407.265625 335.996094c2.699219 2.699218 6.800781 3.5 10.398437 2.101562 3.601563-1.5 5.902344-4.902344 5.902344-8.800781s-2.300781-7.300781-5.902344-8.800781c-3.597656-1.5-7.699218-.699219-10.398437 2.101562-1.800781 1.800782-2.800781 4.199219-2.800781 6.699219s1 4.898437 2.800781 6.699219zm0 0"/><path d="m463.867188 234.996094c0 5.246094-4.253907 9.5-9.5 9.5-5.25 0-9.5-4.253906-9.5-9.5s4.25-9.5 9.5-9.5c5.246093 0 9.5 4.253906 9.5 9.5zm0 0"/><path d="m463.867188 140.695312c0 5.246094-4.253907 9.5-9.5 9.5-5.25 0-9.5-4.253906-9.5-9.5 0-5.246093 4.25-9.5 9.5-9.5 5.246093 0 9.5 4.253907 9.5 9.5zm0 0"/><path d="m454.367188 59.898438c2.699218-2.703126 3.5-6.800782 2.097656-10.402344-1.5-3.597656-4.898438-5.898438-8.800782-5.898438-3.898437 0-7.296874 2.300782-8.796874 5.898438-1.5 3.601562-.703126 7.699218 2.097656 10.402344 3.601562 3.796874 9.699218 3.796874 13.402344 0zm0 0"/></svg>