<svg xmlns="http://www.w3.org/2000/svg" viewBox="0 0 512 512" style="height: 512px; width: 512px;"><defs><radialGradient id="gradient-2"><stop offset="0%" stop-color="#7ed321" stop-opacity="1"></stop><stop offset="100%" stop-color="#417505" stop-opacity="1"></stop></radialGradient></defs><path d="M0 0h512v512H0z" fill="transparent" fill-opacity="0"></path><g class="" transform="translate(0,0)" style="touch-action: none;"><g><path d="M65.406 22.438C-32.612 123.463 45.7 279.385 140 313.03C250.753 352.548 421.45 264.352 469.688 381.344C472.575 392.617 472.362 403.139 470 412.814C465.416 431.584 452.14 447.656 434.906 458.219C417.673 468.781 396.72 473.562 378.031 470.469C359.343 467.374 342.794 457.095 331.971 435.624C324.715 421.206 324.137 409.688 326.721 400.904C329.303 392.122 335.197 385.672 342.813 381.844C358.046 374.184 379.333 376.974 392.033 399.468C399.529 412.744 394.615 422.014 388.251 425.998C385.069 427.99 381.617 428.578 377.938 427.373C374.26 426.167 369.838 422.973 365.876 415.217L349.251 423.717C354.911 434.797 363.011 442.144 372.095 445.122C381.179 448.1 390.719 446.497 398.157 441.842C413.034 432.528 419.811 410.698 408.282 390.278C391.262 360.132 358.095 353.243 334.408 365.154C322.565 371.11 312.871 381.754 308.783 395.654C304.696 409.554 306.363 426.299 315.283 444.029C328.59 470.422 351.118 484.956 374.973 488.905C398.825 492.855 423.911 486.892 444.69 474.155C465.47 461.419 482.202 441.645 488.16 417.249C492.338 400.139 490.888 380.989 482.316 361.405C482.328 361.209 482.336 361.008 482.346 360.811C481.486 359.141 480.608 357.509 479.722 355.905C476.426 349.38 472.332 342.81 467.377 336.28L467.157 336.438C452.039 316.398 434.057 303.062 413.533 293.156C384.02 278.911 349.027 272.19 311.159 265.219C235.423 251.275 147.849 235.601 74.815 149.686L89.035 137.593C158.061 218.793 238.701 232.851 314.535 246.813C352.451 253.793 389.057 260.576 421.659 276.313C444.359 287.268 464.981 302.785 482.065 325.28C464.098 111.956 141.36 206.986 65.406 22.44Z" class="selected" fill="url(#gradient-2)"></path></g></g></svg>