<svg xmlns="http://www.w3.org/2000/svg" viewBox="0 0 512 512" style="height: 512px; width: 512px;"><path d="M0 0h512v512H0z" fill="transparent" fill-opacity="0"></path><g class="" transform="translate(-11,1)" style="touch-action: none;"><g><path d="M305 19.438C258.51 19.438 219.882 51.622 209.156 94.812L204.5 113.562L192.687 98.282C179.864 81.69 160.21 70.75 137.844 70.75C99.358 70.75 67.874 102.265 67.874 140.813C67.874 146.896 69.298 152.973 71.188 159.625L74.125 170.031L63.437 171.471C38.487 174.768 19.063 196.071 19.063 222.031C19.063 250.295 41.911 273.157 70.125 273.157C88.353 273.157 104.412 263.339 113.438 248.877L120.406 237.72L128.626 247.938C144.046 267.008 167.571 279.281 193.969 279.281C224.582 279.281 250.519 263.106 265.279 238.595L273.219 225.407L281.249 238.563C290.227 253.238 306.009 262.783 324.529 262.783C339.479 262.783 352.846 256.456 362.155 246.283L368.625 239.22L375.53 245.844C388.105 257.899 404.662 265.219 423.375 265.219C461.861 265.219 493.313 233.734 493.313 195.186C493.313 156.639 461.948 125.718 423.375 125.718C420.401 125.718 417.621 125.888 414.75 126.248L404.375 127.561L404.25 117.091C403.64 62.784 359.446 19.435 305 19.435Z" class="" fill="#c9c9c9" fill-opacity="1"></path><path d="M347.47 277.563C341.657 279.589 335.5 280.895 329.125 281.313L336.719 307.938L354.593 302.563L347.468 277.563Z" class="" fill="#48baff" fill-opacity="1"></path><path d="M134.312 278.688L144.375 313.938L162.25 308.594L157.28 291.156C149.062 287.983 141.362 283.752 134.312 278.686Z" class="" fill="#48baff" fill-opacity="1"></path><path d="M397.312 279.938L411.437 329.438L429.312 324.094L417.812 283.719C410.708 283.269 403.842 281.986 397.312 279.936Z" class="" fill="#48baff" fill-opacity="1"></path><path d="M88.187 289.406C82.43 290.988 76.377 291.844 70.125 291.844C69.905 291.844 69.689 291.814 69.469 291.814L81.279 333.281L99.155 327.907L88.185 289.407Z" class="" fill="#48baff" fill-opacity="1"></path><path d="M220.157 294.531C214.185 296.126 207.994 297.183 201.625 297.657L210.595 329.095L228.469 323.72L220.155 294.53Z" class="" fill="#48baff" fill-opacity="1"></path><path d="M290.781 301.595L272.876 306.97L289.189 364.187L307.095 358.812L290.782 301.594Z" class="" fill="#48baff" fill-opacity="1"></path><path d="M366.72 345L348.812 350.375L358.875 385.688L376.781 380.313L366.72 345Z" class="" fill="#48baff" fill-opacity="1"></path><path d="M174.375 351.03L156.469 356.406L165.469 387.936L183.343 382.563L174.373 351.031Z" class="" fill="#48baff" fill-opacity="1"></path><path d="M240.595 366.156L222.688 371.531L239.625 430.971L257.531 425.595L240.595 366.157Z" class="" fill="#48baff" fill-opacity="1"></path><path d="M441.438 366.531L423.531 371.907L435.721 414.563L453.595 409.188L441.439 366.532Z" class="" fill="#48baff" fill-opacity="1"></path><path d="M111.281 370.345L93.376 375.72L107.846 426.47L125.751 421.094L111.281 370.344Z" class="" fill="#48baff" fill-opacity="1"></path><path d="M319.188 401.282L301.313 406.627L317.188 462.315L335.063 456.94L319.188 401.283Z" class="" fill="#48baff" fill-opacity="1"></path><path d="M388.876 422.752L370.97 428.127L379.562 458.315L397.5 452.94L388.875 422.752Z" class="" fill="#48baff" fill-opacity="1"></path><path d="M195.47 425L177.563 430.375L186.593 462.063L204.5 456.688L195.47 425Z" class="" fill="#48baff" fill-opacity="1"></path><path d="M465.72 451.625L447.81 457L458.31 493.844L477.748 493.844L465.718 451.624Z" class="" fill="#48baff" fill-opacity="1"></path><path d="M137.843 463.53L119.968 468.906L127.061 493.844L146.5 493.844L137.844 463.531Z" class="selected" fill="#48baff" fill-opacity="1"></path><path d="M269.623 468.03L251.749 473.406L257.562 493.844L277 493.844L269.625 468.031Z" class="" fill="#48baff" fill-opacity="1"></path></g></g></svg>