<svg xmlns="http://www.w3.org/2000/svg" viewBox="0 0 512 512" style="height: 512px; width: 512px;"><defs><radialGradient id="gradient-11"><stop offset="0%" stop-color="#417505" stop-opacity="1"></stop><stop offset="100%" stop-color="#7ed321" stop-opacity="1"></stop></radialGradient><radialGradient id="gradient-12"><stop offset="0%" stop-color="#417505" stop-opacity="1"></stop><stop offset="100%" stop-color="#7ed321" stop-opacity="1"></stop></radialGradient><radialGradient id="gradient-13"><stop offset="0%" stop-color="#417505" stop-opacity="1"></stop><stop offset="100%" stop-color="#7ed321" stop-opacity="1"></stop></radialGradient><radialGradient id="gradient-14"><stop offset="0%" stop-color="#417505" stop-opacity="1"></stop><stop offset="100%" stop-color="#7ed321" stop-opacity="1"></stop></radialGradient><radialGradient id="gradient-15"><stop offset="0%" stop-color="#417505" stop-opacity="1"></stop><stop offset="100%" stop-color="#7ed321" stop-opacity="1"></stop></radialGradient><radialGradient id="gradient-16"><stop offset="0%" stop-color="#417505" stop-opacity="1"></stop><stop offset="100%" stop-color="#7ed321" stop-opacity="1"></stop></radialGradient><radialGradient id="gradient-17"><stop offset="0%" stop-color="#417505" stop-opacity="1"></stop><stop offset="100%" stop-color="#7ed321" stop-opacity="1"></stop></radialGradient><radialGradient id="gradient-18"><stop offset="0%" stop-color="#417505" stop-opacity="1"></stop><stop offset="100%" stop-color="#7ed321" stop-opacity="1"></stop></radialGradient><radialGradient id="gradient-19"><stop offset="0%" stop-color="#417505" stop-opacity="1"></stop><stop offset="100%" stop-color="#7ed321" stop-opacity="1"></stop></radialGradient><radialGradient id="gradient-20"><stop offset="0%" stop-color="#417505" stop-opacity="1"></stop><stop offset="100%" stop-color="#7ed321" stop-opacity="1"></stop></radialGradient><radialGradient id="gradient-21"><stop offset="0%" stop-color="#417505" stop-opacity="1"></stop><stop offset="100%" stop-color="#7ed321" stop-opacity="1"></stop></radialGradient><radialGradient id="gradient-22"><stop offset="0%" stop-color="#417505" stop-opacity="1"></stop><stop offset="100%" stop-color="#7ed321" stop-opacity="1"></stop></radialGradient><radialGradient id="gradient-23"><stop offset="0%" stop-color="#417505" stop-opacity="1"></stop><stop offset="100%" stop-color="#7ed321" stop-opacity="1"></stop></radialGradient><radialGradient id="gradient-24"><stop offset="0%" stop-color="#417505" stop-opacity="1"></stop><stop offset="100%" stop-color="#7ed321" stop-opacity="1"></stop></radialGradient><radialGradient id="gradient-25"><stop offset="0%" stop-color="#417505" stop-opacity="1"></stop><stop offset="100%" stop-color="#7ed321" stop-opacity="1"></stop></radialGradient><radialGradient id="gradient-26"><stop offset="0%" stop-color="#417505" stop-opacity="1"></stop><stop offset="100%" stop-color="#7ed321" stop-opacity="1"></stop></radialGradient></defs><g class="" transform="translate(0,0)" style="touch-action: none;"><g><path d="M206.135 23.568C144.142 23.674 72.923 61.887 32.373 108.896C32.373 108.896 126.905 100.508 142.105 144.373C166.655 215.219 38.337 207.205 36.486 317.996C35.092 401.467 125.846 487.754 212.586 487.808C216.8 489.213 394.539 487.808 394.539 487.808C414.322 487.528 415.145 465.257 345.727 451.171C491.319 303.318 258.985 292.098 260.271 405.392C242.315 386.589 260.848 305.576 357.963 309.56C390.873 333.04 409.78 336.933 446.523 328.844C453.505 327.307 458.573 303.179 441.061 301.78L409.281 299.24C381.175 273.563 374.463 262.763 402.611 241.777C471.481 259.835 479.658 253.853 479.627 228.447C479.597 203.592 470.1 137.814 413.795 134.632C406.094 124.321 423.585 92.59 409.842 91.675C390.828 90.409 359.36 120.092 363.576 135.462C345.241 143.217 324.848 166.618 304.426 195.076C235.11 220.506 184.936 337.715 184.276 365.708C183.697 183.273 337.518 185.114 324.492 120.938C310.422 51.614 257.5 23.48 206.135 23.568Z" class="selected" fill="#9b9b9b" fill-opacity="1"></path><path d="M432.807 169.97C439.971 169.97 445.779 175.778 445.779 182.943C445.779 190.107 439.971 195.915 432.807 195.915C425.642 195.915 419.834 190.107 419.834 182.943C419.834 175.778 425.642 169.97 432.807 169.97Z" class="" fill="#000000" fill-opacity="1"></path></g></g></svg>