<svg xmlns="http://www.w3.org/2000/svg" viewBox="0 0 512 512" style="height: 512px; width: 512px;"><path d="M0 0h512v512H0z" fill="#ffffff" fill-opacity="0"></path><g class="" transform="translate(-9,-1)" style="touch-action: none;"><g><path d="M199.188 19.97C195.71 19.924 192.486 21.782 190.781 24.813C187.094 31.131 183.494 37.521 179.938 43.969C173.598 42.851 167.343 43.711 163.532 47.499C139.412 71.479 103.83 148.632 118.222 159.187C120.19 160.631 122.308 161.827 124.532 162.843C107.892 205.679 94.348 249.135 84.408 291.405C82.48 226.395 70.071 164.241 22.188 128.468C66.275 186.733 71.068 284.333 64.065 364.873C52.375 365.683 40.725 366.533 29.095 367.403L30.502 386.343C41.029 385.553 51.592 384.798 62.158 384.06C56.754 431.955 47.685 471.568 41.44 489.53L69.72 481.748L89.564 485.654C92.759 451.909 97.247 417.08 106.034 381.217C210.79 374.867 318.094 372.274 431.158 380.403C440.368 400.49 438.826 418.653 433.721 444.559C433.031 413.963 401.039 385.395 306.471 386.841C269.186 387.424 206.498 411.761 213.126 448.435C223.166 503.915 307.061 512.175 378.001 486.185L345.221 442.465L421.688 480.215C428.733 470.035 433.248 458.617 433.688 447.372C448.244 449.202 462.814 450.982 477.313 453.247C497.913 416.447 502.563 298.887 389.313 138.777C428.923 226.882 461.193 329.159 452.47 362.997C450.217 362.811 447.966 362.612 445.72 362.434C417.296 324.4 351.435 281.622 317.906 264.872C370.742 309.23 401.776 337.56 419 360.53C380.257 358.018 342.19 356.717 304.687 356.375C238.657 355.775 174.377 358.107 111.187 361.845C125.433 312.381 148.731 261.011 188.937 207.875C137.595 246.233 111.429 293.377 93.531 342.595C103.295 286.608 120.315 226.53 143.221 167.687C144.964 167.921 146.691 168.137 148.407 168.312C171.472 170.692 197.431 100.169 201.095 62.969C201.47 59.157 199.783 55.555 196.907 52.529C200.277 46.419 203.697 40.357 207.187 34.374C210.964 28.112 206.546 20.109 199.235 19.969C199.219 19.968 199.203 19.968 199.187 19.968Z" class="selected" fill="#417505" fill-opacity="1"></path></g></g></svg>