<svg xmlns="http://www.w3.org/2000/svg" viewBox="0 0 512 512" style="height: 512px; width: 512px;"><defs><linearGradient x1="0" x2="0" y1="0" y2="1" id="gradient-5"><stop offset="0%" stop-color="#d0021b" stop-opacity="1"></stop><stop offset="100%" stop-color="#f8e71c" stop-opacity="1"></stop></linearGradient></defs><path d="M0 0h512v512H0z" fill="transparent" fill-opacity="0"></path><g class="" transform="translate(-11,2)" style="touch-action: none;"><path d="M199 103v50h-78v30h270v-30h-78v-50H199zm18 18h78v32h-78v-32zm-79.002 80l30.106 286h175.794l30.104-286H137.998zm62.338 13.38l.64 8.98 16 224 .643 8.976-17.956 1.283-.64-8.98-16-224-.643-8.976 17.956-1.283zm111.328 0l17.955 1.284-.643 8.977-16 224-.64 8.98-17.956-1.284.643-8.977 16-224 .64-8.98zM247 215h18v242h-18V215z" fill="#9b9b9b" fill-opacity="1"></path></g></svg>