<svg xmlns="http://www.w3.org/2000/svg" viewBox="0 0 512 512" style="height: 512px; width: 512px;"><defs><linearGradient x1="0" x2="0" y1="0" y2="1" id="gradient-2"><stop offset="0%" stop-color="#d0021b" stop-opacity="1"></stop><stop offset="100%" stop-color="#f5a623" stop-opacity="1"></stop></linearGradient><linearGradient x1="0" x2="0" y1="0" y2="1" id="gradient-4"><stop offset="0%" stop-color="#d0021b" stop-opacity="1"></stop><stop offset="100%" stop-color="#4a4a4a" stop-opacity="1"></stop></linearGradient></defs><path d="M0 0h512v512H0z" fill="#8b572a" fill-opacity="0"></path><g class="" transform="translate(1,0)" style="touch-action: none;"><g transform="translate(25.6, 25.6) scale(0.9, 0.9) rotate(0, 256, 256)"><path d="M22.617 18C18.6 55.817 39.13 114.441 82.812 150.084C103.084 163.162 128.344 170.26 173.572 160.666C145.532 180.702 117.587 183.188 92.452 174.371C90.809 214.879 104.177 248.543 137.176 266.633L144.131 267.855C165.943 271.689 184.708 274.409 201.195 276.287C244.299 275.26 302.169 261.034 308.27 230.027C313.476 247.281 298.857 265.922 277.809 279.057C304.545 277.269 323.699 272.522 348.771 269.582C371.431 265.381 394.52 263.026 407.096 235.639C383.472 234.067 340.132 196.194 349.064 168.395C359.297 193.147 383.85 214.77 416.553 219.109C449.256 223.449 478.491 221.871 490.998 197.131C454.256 189.784 407.32 166.471 407.422 138.967C424.11 162.676 465.254 176.555 494 180.592L494 100.225C476.597 97.708 456.39 88.609 432.469 70.941C403.746 81.551 362.299 72.117 342.91 41.861C357.58 51.238 420.526 73.297 462.32 36.789C460.187 50.051 452.614 59.901 442.123 66.301C457.929 79.04 478.128 83.145 494 83.523L494 18L88.773 18C111.487 56.433 149.149 61.69 204.521 38.205C179.537 68.715 136.773 74.975 112.426 64.57C90.848 55.35 76.912 36.484 68.246 18L22.617 18Z" class="" fill="url(#gradient-2)"></path><path d="M248.654 85.768C243.234 102.685 228.185 119.315 211.021 128.1C235.391 156.668 297.339 145.37 336.764 117.838C331.264 130.308 301.754 153.665 271.25 157.592C245.091 160.959 216.013 155.166 196.818 133.282C170.988 138.736 143.498 123.867 133.594 95.844C146.939 104.731 169.442 125.432 196.114 117.178C211.727 112.106 235.2 100.421 248.654 85.768Z" class="" fill="#ffffff" fill-opacity="1"></path><path d="M148.314 286.789C121.427 356.821 61.605 426.55 13.25 494L494 494L494 469.592C475.741 451.388 456.763 433.127 438.584 414.738C398.414 374.104 361.961 332.863 346.941 288.035C339.265 289.022 331.935 290.185 324.541 291.352C335.331 325.742 358.69 362.185 374.367 388.729L358.867 397.883C343.2 371.356 318.041 333.091 306.529 294.047C300.274 294.907 293.773 295.686 286.773 296.289C288.429 314.46 294.752 333.139 303.813 352.223L287.551 359.941C277.861 339.531 270.634 318.711 268.797 297.371C259.779 297.675 249.88 297.653 238.828 297.193C235.54 323.633 228.568 349.975 218.387 376.195L201.607 369.682C211.172 345.049 217.688 320.533 220.83 296.113C212.414 295.463 203.35 294.566 193.582 293.396C183.962 334.438 151.674 389.044 129.295 411.586L116.521 398.904C133.811 381.49 166.264 326.158 175.572 291.034C166.467 289.741 157.381 288.326 148.314 286.789Z" class="selected" fill="url(#gradient-4)"></path></g></g></svg>